<svg width="12" height="15" viewBox="0 0 12 15" fill="none" xmlns="http://www.w3.org/2000/svg">
<path d="M1.99996 12.1666V6.16663C1.99996 5.10576 2.42139 4.08834 3.17153 3.3382C3.92168 2.58805 4.93909 2.16663 5.99996 2.16663C7.06082 2.16663 8.07824 2.58805 8.82838 3.3382C9.57853 4.08834 9.99996 5.10576 9.99996 6.16663V12.1666M1.99996 12.1666H9.99996M1.99996 12.1666H0.666626M9.99996 12.1666H11.3333M5.33329 14.1666H6.66662" stroke="white" stroke-linecap="round" stroke-linejoin="round"/>
<path d="M5.99992 2.16665C6.36811 2.16665 6.66659 1.86817 6.66659 1.49998C6.66659 1.13179 6.36811 0.833313 5.99992 0.833313C5.63173 0.833313 5.33325 1.13179 5.33325 1.49998C5.33325 1.86817 5.63173 2.16665 5.99992 2.16665Z" stroke="white"/>
</svg>
