<svg width="8" height="9" viewBox="0 0 8 9" fill="none" xmlns="http://www.w3.org/2000/svg">
<path d="M0.818024 3.14652C0.911788 3.05278 1.03894 3.00012 1.17152 3.00012C1.30411 3.00012 1.43126 3.05278 1.52502 3.14652L4.00002 5.62152L6.47502 3.14652C6.56932 3.05544 6.69563 3.00504 6.82673 3.00618C6.95782 3.00732 7.08323 3.0599 7.17593 3.15261C7.26864 3.24531 7.32122 3.37072 7.32236 3.50181C7.3235 3.63291 7.2731 3.75921 7.18202 3.85352L4.35352 6.68202C4.25976 6.77575 4.13261 6.82841 4.00002 6.82841C3.86744 6.82841 3.74029 6.77575 3.64652 6.68202L0.818024 3.85352C0.724289 3.75975 0.671631 3.6326 0.671631 3.50002C0.671631 3.36743 0.724289 3.24028 0.818024 3.14652Z" fill="white"/>
</svg>
