<svg width="25" height="25" viewBox="0 0 25 25" fill="none" xmlns="http://www.w3.org/2000/svg">
<g clip-path="url(#clip0_197_2)">
<path d="M21.3048 24.4805H3.69481C1.94168 24.4805 0.520508 23.0593 0.520508 21.3062V6.06767C0.520508 4.31454 1.94168 2.89337 3.69481 2.89337H21.3048C23.0579 2.89337 24.4791 4.31454 24.4791 6.06767V21.3062C24.4792 23.0593 23.0579 24.4805 21.3048 24.4805Z" fill="white" stroke="#0F3A59" stroke-width="0.5"/>
<path d="M6.38116 5.11007C5.71136 5.11007 5.16846 4.56707 5.16846 3.89737V1.48217C5.16846 0.81237 5.71146 0.26947 6.38116 0.26947C7.05096 0.26947 7.59386 0.81247 7.59386 1.48217V3.89727C7.59386 4.56707 7.05096 5.11007 6.38116 5.11007Z" fill="#607D8B"/>
<path d="M18.6424 5.11007C17.9726 5.11007 17.4297 4.56707 17.4297 3.89737V1.48217C17.4297 0.81237 17.9727 0.26947 18.6424 0.26947C19.3122 0.26947 19.8551 0.81247 19.8551 1.48217V3.89727C19.8551 4.56707 19.3121 5.11007 18.6424 5.11007Z" fill="#607D8B"/>
<path d="M14.2934 13.7385L17.235 10.7968C17.7227 10.3091 17.7227 9.51837 17.235 9.03057C16.7473 8.54287 15.9566 8.54287 15.4688 9.03057L12.5271 11.9723L9.58559 9.03067C9.09789 8.54297 8.30719 8.54297 7.81949 9.03067C7.33179 9.51837 7.33169 10.3091 7.81939 10.7969L10.7611 13.7386L7.92259 16.577C7.43489 17.0647 7.43489 17.8554 7.92259 18.3432C8.41029 18.8309 9.20109 18.8309 9.68879 18.3432L12.5272 15.5048L15.3656 18.3432C15.8533 18.8309 16.644 18.8309 17.1318 18.3432C17.6195 17.8555 17.6195 17.0648 17.1318 16.577L14.2934 13.7385Z" fill="#F44336"/>
</g>
<defs>
<clipPath id="clip0_197_2">
<rect width="25" height="25" fill="white"/>
</clipPath>
</defs>
</svg>
