<svg width="24" height="24" viewBox="0 0 24 24" fill="none" xmlns="http://www.w3.org/2000/svg">
<path d="M14.4 12L21.1 5.50001C21.8 4.80001 21.8 3.80001 21.1 3.10001C20.4 2.40001 19.4 2.40001 18.7 3.10001L12 9.60001L5.3 3.00001C4.6 2.30001 3.5 2.30001 2.9 3.00001C2.2 3.70001 2.2 4.80001 2.9 5.40001L9.6 12L3 18.5C2.3 19.2 2.3 20.2 3 20.9C3.3 21.2 3.8 21.4 4.2 21.4C4.6 21.4 5.1 21.2 5.4 20.9L12.1 14.3L18.8 20.9C19.1 21.2 19.6 21.4 20 21.4C20.4 21.4 20.9 21.2 21.2 20.9C21.9 20.2 21.9 19.1 21.2 18.5L14.4 12Z" fill="#3D3D3D"/>
</svg>
