<svg width="25" height="25" viewBox="0 0 25 25" fill="none" xmlns="http://www.w3.org/2000/svg">
<g clip-path="url(#clip0_197_24)">
<path d="M21.3048 24.4805H3.69481C1.94168 24.4805 0.520508 23.0593 0.520508 21.3062V6.06767C0.520508 4.31454 1.94168 2.89337 3.69481 2.89337H21.3048C23.0579 2.89337 24.4791 4.31454 24.4791 6.06767V21.3062C24.4792 23.0593 23.0579 24.4805 21.3048 24.4805Z" fill="white" stroke="#0F3A59" stroke-width="0.5"/>
<path d="M6.38116 5.11007C5.71136 5.11007 5.16846 4.56707 5.16846 3.89737V1.48217C5.16846 0.81237 5.71146 0.26947 6.38116 0.26947C7.05096 0.26947 7.59386 0.81247 7.59386 1.48217V3.89727C7.59386 4.56707 7.05096 5.11007 6.38116 5.11007Z" fill="#607D8B"/>
<path d="M18.6426 5.11007C17.9728 5.11007 17.4299 4.56707 17.4299 3.89737V1.48217C17.4299 0.81237 17.9729 0.26947 18.6426 0.26947C19.3124 0.26947 19.8553 0.81247 19.8553 1.48217V3.89727C19.8553 4.56707 19.3123 5.11007 18.6426 5.11007Z" fill="#607D8B"/>
<path d="M17.6204 9.79108C17.1327 9.30338 16.342 9.30338 15.8543 9.79098L10.6241 15.0212L9.0789 13.476C8.5912 12.9883 7.8005 12.9883 7.3128 13.476C6.8251 13.9637 6.8251 14.7544 7.3128 15.2422L9.6985 17.6279C9.9534 17.8828 10.2902 17.9969 10.6241 17.9854C10.958 17.9969 11.2948 17.8828 11.5497 17.6279L17.6204 11.5572C18.1081 11.0695 18.1081 10.2787 17.6204 9.79108Z" fill="#4CAF50"/>
</g>
<defs>
<clipPath id="clip0_197_24">
<rect width="25" height="25" fill="white"/>
</clipPath>
</defs>
</svg>
