<svg width="18" height="18" viewBox="0 0 18 18" fill="none" xmlns="http://www.w3.org/2000/svg">
<g opacity="0.6">
<path d="M6 12.75C6.2125 12.75 6.39075 12.678 6.53475 12.534C6.67875 12.39 6.7505 12.212 6.75 12C6.75 11.7875 6.678 11.6093 6.534 11.4653C6.39 11.3213 6.212 11.2495 6 11.25C5.7875 11.25 5.60925 11.322 5.46525 11.466C5.32125 11.61 5.2495 11.788 5.25 12C5.25 12.2125 5.322 12.3908 5.466 12.5348C5.61 12.6788 5.788 12.7505 6 12.75ZM6 9.75C6.2125 9.75 6.39075 9.678 6.53475 9.534C6.67875 9.39 6.7505 9.212 6.75 9C6.75 8.7875 6.678 8.60925 6.534 8.46525C6.39 8.32125 6.212 8.2495 6 8.25C5.7875 8.25 5.60925 8.322 5.46525 8.466C5.32125 8.61 5.2495 8.788 5.25 9C5.25 9.2125 5.322 9.39075 5.466 9.53475C5.61 9.67875 5.788 9.7505 6 9.75ZM6 6.75C6.2125 6.75 6.39075 6.678 6.53475 6.534C6.67875 6.39 6.7505 6.212 6.75 6C6.75 5.7875 6.678 5.60925 6.534 5.46525C6.39 5.32125 6.212 5.2495 6 5.25C5.7875 5.25 5.60925 5.322 5.46525 5.466C5.32125 5.61 5.2495 5.788 5.25 6C5.25 6.2125 5.322 6.39075 5.466 6.53475C5.61 6.67875 5.788 6.7505 6 6.75ZM8.25 12.75H12.75V11.25H8.25V12.75ZM8.25 9.75H12.75V8.25H8.25V9.75ZM8.25 6.75H12.75V5.25H8.25V6.75ZM3.75 15.75C3.3375 15.75 2.98425 15.603 2.69025 15.309C2.39625 15.015 2.2495 14.662 2.25 14.25V3.75C2.25 3.3375 2.397 2.98425 2.691 2.69025C2.985 2.39625 3.338 2.2495 3.75 2.25H14.25C14.6625 2.25 15.0158 2.397 15.3098 2.691C15.6038 2.985 15.7505 3.338 15.75 3.75V14.25C15.75 14.6625 15.603 15.0158 15.309 15.3098C15.015 15.6038 14.662 15.7505 14.25 15.75H3.75ZM3.75 14.25H14.25V3.75H3.75V14.25Z" fill="white"/>
</g>
</svg>
