<svg width="25" height="25" viewBox="0 0 25 25" fill="none" xmlns="http://www.w3.org/2000/svg">
<g clip-path="url(#clip0_197_9)">
<path d="M21.3048 24.4805H3.69481C1.94168 24.4805 0.520508 23.0593 0.520508 21.3062V6.06767C0.520508 4.31454 1.94168 2.89337 3.69481 2.89337H21.3048C23.0579 2.89337 24.4791 4.31454 24.4791 6.06767V21.3062C24.4792 23.0593 23.0579 24.4805 21.3048 24.4805Z" fill="white" stroke="#0F3A59" stroke-width="0.5"/>
<path d="M6.38116 5.11007C5.71136 5.11007 5.16846 4.56707 5.16846 3.89737V1.48217C5.16846 0.81237 5.71146 0.26947 6.38116 0.26947C7.05096 0.26947 7.59386 0.81247 7.59386 1.48217V3.89727C7.59386 4.56707 7.05096 5.11007 6.38116 5.11007Z" fill="#607D8B"/>
<path d="M18.6424 5.11007C17.9726 5.11007 17.4297 4.56707 17.4297 3.89737V1.48217C17.4297 0.81237 17.9727 0.26947 18.6424 0.26947C19.3122 0.26947 19.8551 0.81247 19.8551 1.48217V3.89727C19.8551 4.56707 19.3121 5.11007 18.6424 5.11007Z" fill="#607D8B"/>
<path d="M17.4301 19.9774H6.70899C6.51559 19.9774 6.35889 19.849 6.35889 19.69C6.35889 19.5311 6.51559 19.4026 6.70899 19.4026H17.4301C17.6235 19.4026 17.7802 19.531 17.7802 19.69C17.7802 19.849 17.6235 19.9774 17.4301 19.9774Z" fill="black"/>
<path d="M6.38213 19.535C6.27603 19.8464 6.55123 20.0823 6.84273 19.9298L7.85073 19.4026L6.74903 18.4582L6.38213 19.535Z" fill="black"/>
<path d="M6.74902 18.4583L7.85062 19.4027L8.43532 19.0969L10.7521 17.8852L9.27862 16.6221L7.80512 15.3589L6.96182 17.8338L6.74902 18.4583Z" fill="#CEAE7C"/>
<path d="M9.7697 17.0437L10.752 17.8857L15.9823 11.7842L15 10.9422L9.7697 17.0437Z" fill="#FFCE31"/>
<path d="M7.80534 15.3595L8.7876 16.2015L14.0179 10.0999L13.0357 9.25793L7.80534 15.3595Z" fill="#FFCE31"/>
<path d="M8.78777 16.2016L9.77002 17.0436L15.0004 10.942L14.0181 10.1L8.78777 16.2016Z" fill="#FFBF0D"/>
<path d="M13.7031 8.47853L14.0537 8.06953C14.4701 7.58383 15.1357 7.47133 15.5405 7.81833L17.0217 9.08803C17.4265 9.43503 17.417 10.11 17.0007 10.5957L16.6501 11.0047" fill="#B54048"/>
<path d="M13.0361 9.25786L15.9829 11.7839L16.6504 11.0053L13.7035 8.47922L13.0361 9.25786Z" fill="#232323"/>
</g>
<defs>
<clipPath id="clip0_197_9">
<rect width="25" height="25" fill="white"/>
</clipPath>
</defs>
</svg>
