<svg width="15" height="15" viewBox="0 0 15 15" fill="none" xmlns="http://www.w3.org/2000/svg">
<g clip-path="url(#clip0_176_557)">
<path d="M7.5 15C11.6 15 15 11.6 15 7.5C15 3.4 11.6 -2.97237e-07 7.5 -6.55671e-07C3.4 -1.0141e-06 1.0141e-06 3.4 6.55671e-07 7.5C2.97237e-07 11.6 3.4 15 7.5 15ZM7.5 10.2C8.1 10.2 8.6 10.7 8.6 11.3C8.6 11.9 8.1 12.4 7.5 12.4C6.9 12.4 6.4 11.9 6.4 11.3C6.4 10.7 6.9 10.2 7.5 10.2ZM6.4 8.4L6.4 3.6C6.4 3 6.9 2.5 7.5 2.5C8.1 2.5 8.6 3 8.6 3.6L8.6 8.4C8.6 9 8.1 9.5 7.5 9.5C6.9 9.5 6.4 9 6.4 8.4Z" fill="#FF5959"/>
</g>
<defs>
<clipPath id="clip0_176_557">
<rect width="15" height="15" fill="white" transform="translate(15 15) rotate(-180)"/>
</clipPath>
</defs>
</svg>
