<svg width="13" height="13" viewBox="0 0 13 13" fill="none" xmlns="http://www.w3.org/2000/svg">
<path d="M7.95479 6.23591L3.45801 5.44373V11.2974C3.45806 11.361 3.47064 11.4239 3.49502 11.4827C3.51941 11.5414 3.55512 11.5948 3.60013 11.6397C3.64513 11.6846 3.69855 11.7202 3.75732 11.7445C3.81609 11.7688 3.87907 11.7813 3.94266 11.7812H11.702C11.7657 11.7814 11.8288 11.769 11.8876 11.7448C11.9465 11.7205 12 11.6849 12.0451 11.64C12.0902 11.595 12.126 11.5416 12.1504 11.4829C12.1748 11.4241 12.1875 11.361 12.1875 11.2974V9.1406L7.95479 6.23591Z" fill="#185C37"/>
<path d="M7.95479 1.21875H3.94266C3.87907 1.2187 3.81609 1.23117 3.75732 1.25546C3.69855 1.27974 3.64513 1.31537 3.60013 1.3603C3.55512 1.40523 3.51941 1.45858 3.49502 1.51731C3.47064 1.57604 3.45806 1.639 3.45801 1.70259V3.85938L7.95479 6.5L10.3358 7.29219L12.1875 6.5V3.85938L7.95479 1.21875Z" fill="#21A366"/>
<path d="M3.45801 3.85938H7.95479V6.5H3.45801V3.85938Z" fill="#107C41"/>
<path opacity="0.1" d="M6.67632 3.3313H3.45801V9.93286H6.67632C6.80456 9.93222 6.92738 9.88108 7.01818 9.79052C7.10897 9.69995 7.16042 9.57726 7.16138 9.44902V3.81514C7.16042 3.68691 7.10897 3.56421 7.01818 3.47364C6.92738 3.38308 6.80456 3.33194 6.67632 3.3313Z" fill="black"/>
<path opacity="0.2" d="M6.41185 3.59534H3.45801V10.1969H6.41185C6.54009 10.1963 6.66291 10.1451 6.75371 10.0546C6.8445 9.96399 6.89595 9.84129 6.89691 9.71306V4.07918C6.89595 3.95094 6.8445 3.82825 6.75371 3.73768C6.66291 3.64712 6.54009 3.59597 6.41185 3.59534Z" fill="black"/>
<path opacity="0.2" d="M6.41185 3.59534H3.45801V9.66877H6.41185C6.54009 9.66814 6.66291 9.61699 6.75371 9.52643C6.8445 9.43586 6.89595 9.31317 6.89691 9.18493V4.07918C6.89595 3.95094 6.8445 3.82825 6.75371 3.73768C6.66291 3.64712 6.54009 3.59597 6.41185 3.59534Z" fill="black"/>
<path opacity="0.2" d="M6.14738 3.59534H3.45801V9.66877H6.14738C6.27562 9.66814 6.39845 9.61699 6.48924 9.52643C6.58003 9.43586 6.63149 9.31317 6.63245 9.18493V4.07918C6.63149 3.95094 6.58003 3.82825 6.48924 3.73768C6.39845 3.64712 6.27562 3.59597 6.14738 3.59534Z" fill="black"/>
<path d="M1.29756 3.59534H6.14737C6.27584 3.59523 6.3991 3.64613 6.49005 3.73686C6.58101 3.82759 6.63222 3.95071 6.63244 4.07918V8.92087C6.63222 9.04934 6.58101 9.17246 6.49005 9.26319C6.3991 9.35392 6.27584 9.40482 6.14737 9.40471H1.29756C1.23394 9.40482 1.17091 9.39239 1.11209 9.36812C1.05327 9.34386 0.999812 9.30824 0.954764 9.26331C0.909717 9.21838 0.873966 9.165 0.849556 9.10625C0.825145 9.04749 0.812553 8.9845 0.8125 8.92087V4.07918C0.812553 4.01555 0.825145 3.95256 0.849556 3.8938C0.873966 3.83505 0.909717 3.78167 0.954764 3.73674C0.999812 3.69181 1.05327 3.65619 1.11209 3.63193C1.17091 3.60766 1.23394 3.59523 1.29756 3.59534Z" fill="url(#paint0_linear_29_5661)"/>
<path d="M2.31567 8.07345L3.33577 6.49557L2.40139 4.92664H3.15174L3.66158 5.93129C3.7087 6.02635 3.74283 6.09704 3.75827 6.14417H3.76517C3.79849 6.06779 3.83383 5.99426 3.8708 5.92235L4.41599 4.92826H5.10661L4.14827 6.48826L5.13099 8.07467H4.39608L3.80702 6.97332C3.77967 6.92597 3.75642 6.87636 3.73755 6.82504H3.7278C3.71062 6.87505 3.68772 6.92289 3.65955 6.96764L3.05302 8.07345H2.31567Z" fill="white"/>
<path d="M11.7025 1.21875H7.95483V3.85938H12.1876V1.70259C12.1875 1.63897 12.1749 1.57597 12.1505 1.51722C12.1261 1.45846 12.0903 1.40509 12.0453 1.36015C12.0002 1.31522 11.9468 1.2796 11.888 1.25534C11.8291 1.23108 11.7661 1.21864 11.7025 1.21875Z" fill="#33C481"/>
<path d="M7.95483 6.5H12.1876V9.14062H7.95483V6.5Z" fill="#107C41"/>
<defs>
<linearGradient id="paint0_linear_29_5661" x1="1.82569" y1="3.21509" x2="5.61925" y2="9.78496" gradientUnits="userSpaceOnUse">
<stop stop-color="#18884F"/>
<stop offset="0.5" stop-color="#117E43"/>
<stop offset="1" stop-color="#0B6631"/>
</linearGradient>
</defs>
</svg>
