<svg width="50" height="50" viewBox="0 0 50 50" fill="none" xmlns="http://www.w3.org/2000/svg">
<g clip-path="url(#clip0_176_639)">
<path d="M25 50C38.8071 50 50 38.8071 50 25C50 11.1929 38.8071 0 25 0C11.1929 0 0 11.1929 0 25C0 38.8071 11.1929 50 25 50Z" fill="#3983A0"/>
<path d="M28.9999 11.9L27.9999 29.8C27.9999 30.7 27.0999 31.4 26.0999 31.4H23.7999C22.6999 31.4 21.8999 30.7 21.8999 29.8L20.8999 11.9C20.8999 11 21.7999 10.3 22.7999 10.3H26.9999C28.1999 10.2 28.9999 11 28.9999 11.9Z" fill="#EFF0F8"/>
<path d="M24.9999 39.8C26.8776 39.8 28.3999 38.2778 28.3999 36.4C28.3999 34.5222 26.8776 33 24.9999 33C23.1221 33 21.5999 34.5222 21.5999 36.4C21.5999 38.2778 23.1221 39.8 24.9999 39.8Z" fill="#EFF0F8"/>
</g>
<defs>
<clipPath id="clip0_176_639">
<rect width="50" height="50" fill="white"/>
</clipPath>
</defs>
</svg>
