<svg width="18" height="18" viewBox="0 0 18 18" fill="none" xmlns="http://www.w3.org/2000/svg">
<g opacity="0.6">
<path d="M3 13.5V13.0125C3 12.7575 3.12 12.5175 3.3075 12.405C4.575 11.6475 6.0225 11.25 7.5 11.25C7.5225 11.25 7.5375 11.25 7.56 11.2575C7.635 10.7325 7.785 10.23 8.0025 9.7725C7.8375 9.7575 7.6725 9.75 7.5 9.75C5.685 9.75 3.99 10.2525 2.5425 11.115C1.8825 11.505 1.5 12.24 1.5 13.0125V15H8.445C8.13 14.55 7.8825 14.04 7.7175 13.5H3ZM7.5 9C9.1575 9 10.5 7.6575 10.5 6C10.5 4.3425 9.1575 3 7.5 3C5.8425 3 4.5 4.3425 4.5 6C4.5 7.6575 5.8425 9 7.5 9ZM7.5 4.5C8.325 4.5 9 5.175 9 6C9 6.825 8.325 7.5 7.5 7.5C6.675 7.5 6 6.825 6 6C6 5.175 6.675 4.5 7.5 4.5ZM15.5625 12C15.5625 11.835 15.54 11.685 15.5175 11.5275L16.3725 10.77L15.6225 9.4725L14.535 9.84C14.295 9.6375 14.025 9.48 13.725 9.3675L13.5 8.25H12L11.775 9.3675C11.475 9.48 11.205 9.6375 10.965 9.84L9.8775 9.4725L9.1275 10.77L9.9825 11.5275C9.96 11.685 9.9375 11.835 9.9375 12C9.9375 12.165 9.96 12.315 9.9825 12.4725L9.1275 13.23L9.8775 14.5275L10.965 14.16C11.205 14.3625 11.475 14.52 11.775 14.6325L12 15.75H13.5L13.725 14.6325C14.025 14.52 14.295 14.3625 14.535 14.16L15.6225 14.5275L16.3725 13.23L15.5175 12.4725C15.54 12.315 15.5625 12.165 15.5625 12ZM12.75 13.5C11.925 13.5 11.25 12.825 11.25 12C11.25 11.175 11.925 10.5 12.75 10.5C13.575 10.5 14.25 11.175 14.25 12C14.25 12.825 13.575 13.5 12.75 13.5Z" fill="white"/>
</g>
</svg>
