<svg width="14" height="15" viewBox="0 0 14 15" fill="none" xmlns="http://www.w3.org/2000/svg">
<path d="M12.2501 12.7501L9.7167 10.2167M9.7167 10.2167C10.1501 9.78335 10.4938 9.26889 10.7283 8.70269C10.9629 8.13649 11.0836 7.52964 11.0836 6.91679C11.0836 6.30394 10.9629 5.69709 10.7283 5.13088C10.4938 4.56468 10.1501 4.05022 9.7167 3.61687C9.28335 3.18352 8.76889 2.83977 8.20269 2.60524C7.63649 2.37071 7.02964 2.25 6.41679 2.25C5.80394 2.25 5.19709 2.37071 4.63088 2.60524C4.06468 2.83977 3.55022 3.18352 3.11687 3.61687C2.24168 4.49206 1.75 5.67908 1.75 6.91679C1.75 8.1545 2.24168 9.34151 3.11687 10.2167C3.99206 11.0919 5.17908 11.5836 6.41679 11.5836C7.6545 11.5836 8.84151 11.0919 9.7167 10.2167Z" stroke="#0F3A59" stroke-width="1.5" stroke-linecap="round" stroke-linejoin="round"/>
</svg>
