<svg width="23" height="23" viewBox="0 0 23 23" fill="none" xmlns="http://www.w3.org/2000/svg">
<path d="M19.7637 12.2967C19.8117 11.9467 19.8357 11.585 19.8357 11.2C19.8357 10.8267 19.8117 10.4533 19.7517 10.1033L22.1865 8.26C22.4024 8.09667 22.4624 7.78167 22.3304 7.54833L20.0276 3.675C19.8837 3.41833 19.5838 3.33667 19.3199 3.41833L16.4534 4.53833C15.8537 4.095 15.218 3.72167 14.5103 3.44167L14.0786 0.478333C14.0306 0.198333 13.7907 0 13.5028 0H8.89715C8.60929 0 8.38141 0.198333 8.33343 0.478333L7.90165 3.44167C7.194 3.72167 6.54633 4.10667 5.95862 4.53833L3.09205 3.41833C2.82819 3.325 2.52834 3.41833 2.38441 3.675L0.0935536 7.54833C-0.0503744 7.79333 -0.00239852 8.09667 0.237482 8.26L2.67226 10.1033C2.61229 10.4533 2.56432 10.8383 2.56432 11.2C2.56432 11.5617 2.58831 11.9467 2.64828 12.2967L0.213494 14.14C-0.00239851 14.3033 -0.0623684 14.6183 0.0695656 14.8517L2.37241 18.725C2.51634 18.9817 2.81619 19.0633 3.08006 18.9817L5.94663 17.8617C6.54633 18.305 7.18201 18.6783 7.88965 18.9583L8.32144 21.9217C8.38141 22.2017 8.60929 22.4 8.89715 22.4H13.5028C13.7907 22.4 14.0306 22.2017 14.0666 21.9217L14.4984 18.9583C15.206 18.6783 15.8537 18.305 16.4414 17.8617L19.3079 18.9817C19.5718 19.075 19.8717 18.9817 20.0156 18.725L22.3184 14.8517C22.4624 14.595 22.4024 14.3033 22.1745 14.14L19.7637 12.2967ZM11.2 15.4C8.82519 15.4 6.88216 13.51 6.88216 11.2C6.88216 8.89 8.82519 7 11.2 7C13.5748 7 15.5178 8.89 15.5178 11.2C15.5178 13.51 13.5748 15.4 11.2 15.4Z" fill="white"/>
</svg>
