<svg width="24" height="24" viewBox="0 0 24 24" fill="none" xmlns="http://www.w3.org/2000/svg">
<path d="M17.7001 23.1C17.3001 23.1 17.0001 23 16.6001 22.8L12.0001 20.4L7.40011 22.8C6.60011 23.2 5.70011 23.2 4.90011 22.6C4.20011 22.1 3.80011 21.2 4.00011 20.3L4.90011 15.2L1.20011 11.6C0.600113 11 0.300113 10.1 0.600113 9.2C0.900113 8.3 1.60011 7.7 2.50011 7.6L7.60011 6.9L9.90011 2.3C10.3001 1.5 11.1001 1 12.0001 1C12.9001 1 13.7001 1.5 14.1001 2.3L16.4001 6.9L21.5001 7.6C22.4001 7.7 23.1001 8.3 23.4001 9.2C23.7001 10.1 23.5001 11 22.8001 11.6L19.1001 15.2L20.0001 20.3C20.2001 21.2 19.8001 22.1 19.1001 22.6C18.6001 22.9 18.1001 23.1 17.7001 23.1ZM12.0001 2.7C11.9001 2.7 11.6001 2.7 11.4001 3.1L8.90011 8C8.80011 8.3 8.60011 8.5 8.30011 8.5L2.80011 9.3C2.40011 9.4 2.30011 9.6 2.20011 9.7C2.20011 9.8 2.10011 10.1 2.40011 10.4L6.40011 14.3C6.60011 14.5 6.70011 14.8 6.60011 15.1L5.70011 20.6C5.70011 21 5.90011 21.2 6.00011 21.2C6.10011 21.3 6.40011 21.4 6.70011 21.2L11.7001 18.6C11.9001 18.5 12.2001 18.5 12.5001 18.6L17.5001 21.2C17.8001 21.4 18.1001 21.2 18.2001 21.2C18.3001 21.1 18.5001 20.9 18.5001 20.6L17.6001 15.1C17.6001 14.8 17.6001 14.5 17.8001 14.3L21.8001 10.4C22.1001 10.1 22.0001 9.9 22.0001 9.7C22.0001 9.6 21.8001 9.3 21.5001 9.3L15.9001 8.5C15.6001 8.5 15.4001 8.3 15.3001 8L12.8001 3C12.4001 2.7 12.1001 2.7 12.0001 2.7Z" fill="white"/>
</svg>
