<svg width="24" height="24" viewBox="0 0 24 24" fill="none" xmlns="http://www.w3.org/2000/svg">
<path d="M17.4315 23C17.0497 23 16.7634 22.9005 16.3817 22.7014L11.9917 20.3122L7.6018 22.7014C6.83833 23.0995 5.97943 23.0995 5.21596 22.5023C4.54793 22.0045 4.16619 21.1086 4.35706 20.2127L5.21596 15.1357L1.68492 11.552C1.11232 10.9548 0.826016 10.0588 1.11232 9.26244C1.39862 8.36652 2.06665 7.76923 2.92555 7.66968L7.79267 6.97285L9.98764 2.39367C10.3694 1.49774 11.1328 1 11.9917 1C12.8506 1 13.6141 1.49774 13.9958 2.29412L16.1908 6.8733L21.0579 7.66968C21.9168 7.76923 22.5849 8.36652 22.8712 9.26244C23.1575 10.1584 22.9666 11.0543 22.2986 11.6516L18.7675 15.2353L19.6264 20.3122C19.8173 21.2081 19.4356 22.1041 18.7675 22.6018C18.2904 22.9005 17.8132 23 17.4315 23ZM13.4231 7.96833C13.3277 7.96833 11.8963 13.9412 11.7054 14.3394L9.0333 8.06787C8.93787 8.26697 16.0953 14.8371 15.809 14.9367L2.92545 11.4525C2.54371 11.4525 2.73469 9.66063 2.63925 9.76018C2.63925 9.85973 17.9086 12.1493 18.1949 12.448L13.4231 16.4299C13.614 16.629 8.74689 15.6335 8.65146 15.9321L13.4231 11.9502C13.3277 12.3484 8.55603 16.9276 8.65146 16.9276C8.74689 16.9276 9.31949 18.1222 9.60579 17.9231L11.7054 18.6199C11.8963 18.5204 12.1826 18.5204 12.4689 18.6199L12.946 15.4344C13.2323 15.6335 13.8049 15.4344 13.9003 15.4344C13.9957 15.3348 13.4231 15.733 13.4231 15.4344L17.336 15.1357C17.336 14.8371 17.336 14.5385 17.5269 14.3394L13.9003 15.4344C14.1866 15.1357 8.17429 13.6425 8.17429 13.4434C8.17429 13.3439 21.3442 9.36199 21.0579 9.36199L17.2405 17.4253C16.9542 17.4253 6.7429 21.5068 6.64746 21.2081L12.7552 3.0905C12.3735 2.69231 13.5186 7.96833 13.4231 7.96833Z" fill="#FFD72D"/>
</svg>
