<svg width="250" height="45" viewBox="0 0 250 45" fill="none" xmlns="http://www.w3.org/2000/svg">
<rect x="0.5" y="0.5" width="249" height="44" rx="5.5" fill="white"/>
<rect x="0.5" y="0.5" width="249" height="44" rx="5.5" stroke="black"/>
<g clip-path="url(#clip0_1065_18873)">
<path d="M46.3058 18.5692C46.8882 18.5692 47.6183 18.1634 48.053 17.6223C48.4468 17.1318 48.7339 16.447 48.7339 15.7621C48.7339 15.6691 48.7257 15.5761 48.7093 15.5C48.0612 15.5254 47.2819 15.9481 46.8144 16.5146C46.4452 16.9458 46.1089 17.6223 46.1089 18.3156C46.1089 18.417 46.1253 18.5185 46.1335 18.5523C46.1745 18.5608 46.2401 18.5692 46.3058 18.5692ZM44.255 28.8C45.0507 28.8 45.4034 28.2504 46.396 28.2504C47.405 28.2504 47.6265 28.7831 48.5124 28.7831C49.3819 28.7831 49.9644 27.9545 50.514 27.1428C51.1292 26.2127 51.3835 25.2996 51.3999 25.2573C51.3425 25.2404 49.6772 24.5386 49.6772 22.5685C49.6772 20.8606 50.9897 20.0912 51.0636 20.032C50.194 18.7468 48.8733 18.713 48.5124 18.713C47.5362 18.713 46.7405 19.3217 46.2401 19.3217C45.6987 19.3217 44.9851 18.7468 44.1401 18.7468C42.5323 18.7468 40.8999 20.1165 40.8999 22.7038C40.8999 24.3103 41.5069 26.0098 42.2534 27.109C42.8933 28.039 43.4511 28.8 44.255 28.8Z" fill="black"/>
</g>
<path d="M65.5796 25.021C65.5796 24.7427 65.5363 24.4953 65.4497 24.2788C65.3693 24.0623 65.224 23.8644 65.0137 23.6851C64.8034 23.5057 64.5065 23.3325 64.123 23.1655C63.7458 22.9924 63.2633 22.8161 62.6758 22.6367C62.0326 22.4388 61.4388 22.2192 60.8945 21.978C60.3564 21.7306 59.8864 21.4461 59.4844 21.1245C59.0824 20.7967 58.77 20.4225 58.5474 20.002C58.3247 19.5752 58.2134 19.0835 58.2134 18.5269C58.2134 17.9764 58.3278 17.4754 58.5566 17.0239C58.7917 16.5724 59.1226 16.1828 59.5493 15.855C59.9823 15.521 60.4925 15.2643 61.0801 15.085C61.6676 14.8994 62.3171 14.8066 63.0283 14.8066C64.0303 14.8066 64.8931 14.9922 65.6167 15.3633C66.3465 15.7344 66.9062 16.2323 67.2959 16.8569C67.6917 17.4816 67.8896 18.1712 67.8896 18.9258H65.5796C65.5796 18.4805 65.4837 18.0877 65.292 17.7476C65.1064 17.4012 64.8219 17.1291 64.4385 16.9312C64.0612 16.7332 63.5819 16.6343 63.0005 16.6343C62.45 16.6343 61.9924 16.7178 61.6274 16.8848C61.2625 17.0518 60.9904 17.2775 60.811 17.562C60.6317 17.8465 60.542 18.1681 60.542 18.5269C60.542 18.7804 60.6007 19.0124 60.7183 19.2227C60.8358 19.4268 61.0151 19.6185 61.2563 19.7979C61.4976 19.971 61.8006 20.1349 62.1655 20.2896C62.5304 20.4442 62.9603 20.5926 63.4551 20.7349C64.2035 20.9575 64.856 21.2049 65.4126 21.4771C65.9692 21.743 66.4331 22.0461 66.8042 22.3862C67.1753 22.7264 67.4536 23.113 67.6392 23.5459C67.8247 23.9727 67.9175 24.4582 67.9175 25.0024C67.9175 25.5715 67.8031 26.0848 67.5742 26.5425C67.3454 26.994 67.0176 27.3805 66.5908 27.7021C66.1702 28.0176 65.6631 28.2619 65.0693 28.4351C64.4818 28.6021 63.8262 28.6855 63.1025 28.6855C62.4531 28.6855 61.813 28.599 61.1821 28.4258C60.5575 28.2526 59.9884 27.9897 59.4751 27.6372C58.9618 27.2785 58.5535 26.8332 58.2505 26.3013C57.9474 25.7632 57.7959 25.1354 57.7959 24.418H60.1245C60.1245 24.8571 60.1987 25.2313 60.3472 25.5405C60.5018 25.8498 60.7152 26.1034 60.9873 26.3013C61.2594 26.493 61.5749 26.6353 61.9336 26.728C62.2985 26.8208 62.6882 26.8672 63.1025 26.8672C63.6468 26.8672 64.1014 26.7899 64.4663 26.6353C64.8374 26.4806 65.1157 26.2642 65.3013 25.9858C65.4868 25.7075 65.5796 25.3859 65.5796 25.021ZM72.1479 18.4619V28.5H69.9028V18.4619H72.1479ZM69.7544 15.8271C69.7544 15.487 69.8657 15.2056 70.0884 14.9829C70.3172 14.7541 70.6326 14.6396 71.0347 14.6396C71.4305 14.6396 71.7428 14.7541 71.9717 14.9829C72.2005 15.2056 72.3149 15.487 72.3149 15.8271C72.3149 16.1611 72.2005 16.4395 71.9717 16.6621C71.7428 16.8848 71.4305 16.9961 71.0347 16.9961C70.6326 16.9961 70.3172 16.8848 70.0884 16.6621C69.8657 16.4395 69.7544 16.1611 69.7544 15.8271ZM81.0264 18.4619H83.0581V28.2217C83.0581 29.1247 82.8664 29.8916 82.4829 30.5225C82.0994 31.1533 81.5645 31.6326 80.8779 31.9604C80.1914 32.2944 79.3966 32.4614 78.4937 32.4614C78.1102 32.4614 77.6834 32.4058 77.2134 32.2944C76.7495 32.1831 76.298 32.0037 75.8589 31.7563C75.4259 31.5151 75.0641 31.1966 74.7734 30.8008L75.8218 29.4834C76.1805 29.9102 76.5763 30.2225 77.0093 30.4204C77.4422 30.6183 77.8968 30.7173 78.373 30.7173C78.8864 30.7173 79.3224 30.6214 79.6812 30.4297C80.0461 30.2441 80.3275 29.9689 80.5254 29.604C80.7233 29.2391 80.8223 28.7938 80.8223 28.2681V20.7349L81.0264 18.4619ZM74.2075 23.5923V23.3975C74.2075 22.6367 74.3003 21.944 74.4858 21.3193C74.6714 20.6885 74.9373 20.1473 75.2837 19.6958C75.63 19.2381 76.0506 18.8887 76.5454 18.6475C77.0402 18.4001 77.5999 18.2764 78.2246 18.2764C78.874 18.2764 79.4276 18.3939 79.8853 18.6289C80.3491 18.8639 80.7357 19.201 81.0449 19.6401C81.3542 20.0731 81.5954 20.5926 81.7686 21.1987C81.9479 21.7987 82.0809 22.4666 82.1675 23.2026V23.8242C82.0871 24.5417 81.951 25.1973 81.7593 25.791C81.5675 26.3848 81.314 26.8981 80.9985 27.3311C80.6831 27.764 80.2935 28.098 79.8296 28.333C79.3719 28.568 78.8307 28.6855 78.2061 28.6855C77.5938 28.6855 77.0402 28.5588 76.5454 28.3052C76.0568 28.0516 75.6362 27.696 75.2837 27.2383C74.9373 26.7806 74.6714 26.2425 74.4858 25.624C74.3003 24.9993 74.2075 24.3221 74.2075 23.5923ZM76.4434 23.3975V23.5923C76.4434 24.05 76.4867 24.4767 76.5732 24.8726C76.666 25.2684 76.8052 25.6178 76.9907 25.9209C77.1825 26.2178 77.4237 26.4528 77.7144 26.626C78.0112 26.793 78.3607 26.8765 78.7627 26.8765C79.2884 26.8765 79.7183 26.7651 80.0522 26.5425C80.3924 26.3198 80.6522 26.0199 80.8315 25.6426C81.0171 25.2591 81.147 24.8324 81.2212 24.3623V22.6831C81.1841 22.3182 81.1068 21.978 80.9893 21.6626C80.8779 21.3472 80.7264 21.0719 80.5347 20.8369C80.3429 20.5957 80.1017 20.4102 79.811 20.2803C79.5203 20.1442 79.1771 20.0762 78.7812 20.0762C78.3792 20.0762 78.0298 20.1628 77.7329 20.3359C77.436 20.5091 77.1917 20.7472 77 21.0503C76.8145 21.3534 76.6753 21.7059 76.5825 22.1079C76.4897 22.5099 76.4434 22.9398 76.4434 23.3975ZM87.5947 20.605V28.5H85.3589V18.4619H87.4648L87.5947 20.605ZM87.1958 23.1099L86.4722 23.1006C86.4784 22.3893 86.5773 21.7368 86.769 21.1431C86.967 20.5493 87.2391 20.0391 87.5854 19.6123C87.938 19.1855 88.3586 18.8577 88.8472 18.6289C89.3358 18.3939 89.88 18.2764 90.48 18.2764C90.9624 18.2764 91.3984 18.3444 91.7881 18.4805C92.1839 18.6104 92.521 18.8237 92.7993 19.1206C93.0838 19.4175 93.3003 19.804 93.4487 20.2803C93.5972 20.7503 93.6714 21.3286 93.6714 22.0151V28.5H91.4263V22.0059C91.4263 21.5234 91.3551 21.1431 91.2129 20.8647C91.0768 20.5802 90.8758 20.3792 90.6099 20.2617C90.3501 20.138 90.0254 20.0762 89.6357 20.0762C89.2523 20.0762 88.909 20.1566 88.606 20.3174C88.3029 20.4782 88.0462 20.6978 87.8359 20.9761C87.6318 21.2544 87.4741 21.576 87.3628 21.9409C87.2515 22.3058 87.1958 22.6955 87.1958 23.1099ZM103.079 18.4619V28.5H100.833V18.4619H103.079ZM100.685 15.8271C100.685 15.487 100.796 15.2056 101.019 14.9829C101.248 14.7541 101.563 14.6396 101.965 14.6396C102.361 14.6396 102.674 14.7541 102.902 14.9829C103.131 15.2056 103.246 15.487 103.246 15.8271C103.246 16.1611 103.131 16.4395 102.902 16.6621C102.674 16.8848 102.361 16.9961 101.965 16.9961C101.563 16.9961 101.248 16.8848 101.019 16.6621C100.796 16.4395 100.685 16.1611 100.685 15.8271ZM107.745 20.605V28.5H105.509V18.4619H107.615L107.745 20.605ZM107.346 23.1099L106.623 23.1006C106.629 22.3893 106.728 21.7368 106.919 21.1431C107.117 20.5493 107.389 20.0391 107.736 19.6123C108.088 19.1855 108.509 18.8577 108.998 18.6289C109.486 18.3939 110.03 18.2764 110.63 18.2764C111.113 18.2764 111.549 18.3444 111.938 18.4805C112.334 18.6104 112.671 18.8237 112.95 19.1206C113.234 19.4175 113.451 19.804 113.599 20.2803C113.748 20.7503 113.822 21.3286 113.822 22.0151V28.5H111.577V22.0059C111.577 21.5234 111.506 21.1431 111.363 20.8647C111.227 20.5802 111.026 20.3792 110.76 20.2617C110.5 20.138 110.176 20.0762 109.786 20.0762C109.403 20.0762 109.059 20.1566 108.756 20.3174C108.453 20.4782 108.197 20.6978 107.986 20.9761C107.782 21.2544 107.625 21.576 107.513 21.9409C107.402 22.3058 107.346 22.6955 107.346 23.1099ZM123.563 26.2734L125.882 18.4619H127.311L126.921 20.7998L124.583 28.5H123.303L123.563 26.2734ZM122.199 18.4619L124.008 26.3105L124.157 28.5H122.728L120.01 18.4619H122.199ZM129.482 26.2178L131.235 18.4619H133.416L130.707 28.5H129.278L129.482 26.2178ZM127.552 18.4619L129.844 26.1807L130.131 28.5H128.851L126.485 20.7905L126.096 18.4619H127.552ZM137.331 18.4619V28.5H135.085V18.4619H137.331ZM134.937 15.8271C134.937 15.487 135.048 15.2056 135.271 14.9829C135.5 14.7541 135.815 14.6396 136.217 14.6396C136.613 14.6396 136.925 14.7541 137.154 14.9829C137.383 15.2056 137.498 15.487 137.498 15.8271C137.498 16.1611 137.383 16.4395 137.154 16.6621C136.925 16.8848 136.613 16.9961 136.217 16.9961C135.815 16.9961 135.5 16.8848 135.271 16.6621C135.048 16.4395 134.937 16.1611 134.937 15.8271ZM144.381 18.4619V20.0947H138.722V18.4619H144.381ZM140.355 16.0034H142.591V25.7261C142.591 26.0353 142.634 26.2734 142.721 26.4404C142.813 26.6012 142.94 26.7095 143.101 26.7651C143.262 26.8208 143.451 26.8486 143.667 26.8486C143.822 26.8486 143.97 26.8394 144.112 26.8208C144.255 26.8022 144.369 26.7837 144.456 26.7651L144.465 28.4722C144.279 28.5278 144.063 28.5773 143.815 28.6206C143.574 28.6639 143.296 28.6855 142.98 28.6855C142.467 28.6855 142.013 28.5959 141.617 28.4165C141.221 28.231 140.912 27.931 140.689 27.5166C140.466 27.1022 140.355 26.5518 140.355 25.8652V16.0034ZM148.315 14.25V28.5H146.088V14.25H148.315ZM147.925 23.1099L147.202 23.1006C147.208 22.4079 147.304 21.7677 147.489 21.1802C147.681 20.5926 147.947 20.0824 148.287 19.6494C148.633 19.2103 149.048 18.8732 149.53 18.6382C150.013 18.397 150.548 18.2764 151.135 18.2764C151.63 18.2764 152.075 18.3444 152.471 18.4805C152.873 18.6165 153.22 18.8361 153.51 19.1392C153.801 19.436 154.021 19.8257 154.169 20.3081C154.324 20.7843 154.401 21.3657 154.401 22.0522V28.5H152.156V22.0337C152.156 21.5513 152.085 21.1678 151.942 20.8833C151.806 20.5988 151.605 20.3947 151.339 20.271C151.073 20.1411 150.749 20.0762 150.365 20.0762C149.963 20.0762 149.608 20.1566 149.298 20.3174C148.995 20.4782 148.742 20.6978 148.538 20.9761C148.333 21.2544 148.179 21.576 148.074 21.9409C147.975 22.3058 147.925 22.6955 147.925 23.1099ZM166.879 16.792L162.843 28.5H160.403L165.487 14.9922H167.046L166.879 16.792ZM170.256 28.5L166.211 16.792L166.035 14.9922H167.603L172.705 28.5H170.256ZM170.061 23.4902V25.3364H162.713V23.4902H170.061ZM176.073 20.3916V32.3594H173.837V18.4619H175.896L176.073 20.3916ZM182.613 23.3882V23.583C182.613 24.3128 182.527 24.9901 182.354 25.6147C182.187 26.2332 181.936 26.7744 181.602 27.2383C181.274 27.696 180.869 28.0516 180.387 28.3052C179.904 28.5588 179.348 28.6855 178.717 28.6855C178.092 28.6855 177.545 28.5711 177.075 28.3423C176.611 28.1073 176.218 27.7764 175.896 27.3496C175.575 26.9229 175.315 26.4219 175.117 25.8467C174.925 25.2653 174.789 24.6283 174.709 23.9355V23.1841C174.789 22.4481 174.925 21.7801 175.117 21.1802C175.315 20.5802 175.575 20.0638 175.896 19.6309C176.218 19.1979 176.611 18.8639 177.075 18.6289C177.539 18.3939 178.08 18.2764 178.698 18.2764C179.329 18.2764 179.889 18.4001 180.377 18.6475C180.866 18.8887 181.277 19.235 181.611 19.6865C181.945 20.1318 182.196 20.6699 182.363 21.3008C182.53 21.9255 182.613 22.6213 182.613 23.3882ZM180.377 23.583V23.3882C180.377 22.9243 180.334 22.4945 180.248 22.0986C180.161 21.6966 180.025 21.3441 179.839 21.041C179.654 20.738 179.416 20.5029 179.125 20.3359C178.84 20.1628 178.497 20.0762 178.095 20.0762C177.699 20.0762 177.359 20.1442 177.075 20.2803C176.79 20.4102 176.552 20.5926 176.36 20.8276C176.169 21.0627 176.02 21.3379 175.915 21.6533C175.81 21.9626 175.736 22.2996 175.692 22.6646V24.4644C175.767 24.9097 175.893 25.3179 176.073 25.689C176.252 26.0601 176.506 26.3569 176.833 26.5796C177.167 26.7961 177.594 26.9043 178.114 26.9043C178.516 26.9043 178.859 26.8177 179.144 26.6445C179.428 26.4714 179.66 26.2332 179.839 25.9302C180.025 25.6209 180.161 25.2653 180.248 24.8633C180.334 24.4613 180.377 24.0345 180.377 23.583ZM186.76 20.3916V32.3594H184.524V18.4619H186.584L186.76 20.3916ZM193.301 23.3882V23.583C193.301 24.3128 193.214 24.9901 193.041 25.6147C192.874 26.2332 192.624 26.7744 192.29 27.2383C191.962 27.696 191.557 28.0516 191.074 28.3052C190.592 28.5588 190.035 28.6855 189.404 28.6855C188.78 28.6855 188.232 28.5711 187.762 28.3423C187.298 28.1073 186.906 27.7764 186.584 27.3496C186.262 26.9229 186.003 26.4219 185.805 25.8467C185.613 25.2653 185.477 24.6283 185.396 23.9355V23.1841C185.477 22.4481 185.613 21.7801 185.805 21.1802C186.003 20.5802 186.262 20.0638 186.584 19.6309C186.906 19.1979 187.298 18.8639 187.762 18.6289C188.226 18.3939 188.767 18.2764 189.386 18.2764C190.017 18.2764 190.576 18.4001 191.065 18.6475C191.554 18.8887 191.965 19.235 192.299 19.6865C192.633 20.1318 192.883 20.6699 193.05 21.3008C193.217 21.9255 193.301 22.6213 193.301 23.3882ZM191.065 23.583V23.3882C191.065 22.9243 191.022 22.4945 190.935 22.0986C190.848 21.6966 190.712 21.3441 190.527 21.041C190.341 20.738 190.103 20.5029 189.812 20.3359C189.528 20.1628 189.185 20.0762 188.783 20.0762C188.387 20.0762 188.047 20.1442 187.762 20.2803C187.478 20.4102 187.24 20.5926 187.048 20.8276C186.856 21.0627 186.708 21.3379 186.603 21.6533C186.497 21.9626 186.423 22.2996 186.38 22.6646V24.4644C186.454 24.9097 186.581 25.3179 186.76 25.689C186.94 26.0601 187.193 26.3569 187.521 26.5796C187.855 26.7961 188.282 26.9043 188.801 26.9043C189.203 26.9043 189.547 26.8177 189.831 26.6445C190.116 26.4714 190.347 26.2332 190.527 25.9302C190.712 25.6209 190.848 25.2653 190.935 24.8633C191.022 24.4613 191.065 24.0345 191.065 23.583ZM197.596 14.25V28.5H195.351V14.25H197.596ZM204.471 28.6855C203.729 28.6855 203.057 28.5649 202.458 28.3237C201.864 28.0763 201.357 27.7331 200.936 27.2939C200.522 26.8548 200.203 26.3384 199.98 25.7446C199.758 25.1509 199.646 24.5107 199.646 23.8242V23.4531C199.646 22.6676 199.761 21.9564 199.99 21.3193C200.219 20.6823 200.537 20.138 200.945 19.6865C201.354 19.2288 201.836 18.8794 202.393 18.6382C202.949 18.397 203.552 18.2764 204.202 18.2764C204.919 18.2764 205.547 18.397 206.085 18.6382C206.623 18.8794 207.068 19.2196 207.421 19.6587C207.78 20.0916 208.046 20.6081 208.219 21.208C208.398 21.8079 208.488 22.4697 208.488 23.1934V24.1489H200.732V22.5439H206.28V22.3677C206.267 21.9657 206.187 21.5884 206.039 21.2358C205.896 20.8833 205.677 20.5988 205.38 20.3823C205.083 20.1659 204.687 20.0576 204.192 20.0576C203.821 20.0576 203.49 20.138 203.2 20.2988C202.915 20.4535 202.677 20.6792 202.485 20.9761C202.294 21.2729 202.145 21.6317 202.04 22.0522C201.941 22.4666 201.892 22.9336 201.892 23.4531V23.8242C201.892 24.2633 201.95 24.6715 202.068 25.0488C202.192 25.4199 202.371 25.7446 202.606 26.0229C202.841 26.3013 203.125 26.5208 203.459 26.6816C203.793 26.8363 204.174 26.9136 204.601 26.9136C205.139 26.9136 205.618 26.8053 206.039 26.5889C206.459 26.3724 206.824 26.0662 207.133 25.6704L208.312 26.8115C208.095 27.127 207.814 27.43 207.467 27.7207C207.121 28.0052 206.697 28.2371 206.196 28.4165C205.701 28.5959 205.126 28.6855 204.471 28.6855Z" fill="black"/>
<defs>
<clipPath id="clip0_1065_18873">
<rect width="11.2" height="14" fill="white" transform="translate(40.8999 15.5)"/>
</clipPath>
</defs>
</svg>
