<svg width="201" height="44" viewBox="0 0 201 44" fill="none" xmlns="http://www.w3.org/2000/svg">
<rect x="0.5" y="0.5" width="199.2" height="43" rx="7.5" fill="white"/>
<rect x="0.5" y="0.5" width="199.2" height="43" rx="7.5" stroke="black"/>
<path d="M21.4059 18.0692C21.9883 18.0692 22.7184 17.6634 23.1531 17.1223C23.5469 16.6318 23.834 15.947 23.834 15.2621C23.834 15.1691 23.8258 15.0761 23.8094 15C23.1613 15.0254 22.382 15.4481 21.9145 16.0146C21.5453 16.4458 21.209 17.1223 21.209 17.8156C21.209 17.917 21.2254 18.0185 21.2336 18.0523C21.2746 18.0608 21.3402 18.0692 21.4059 18.0692ZM19.3551 28.3C20.1508 28.3 20.5035 27.7504 21.4961 27.7504C22.5051 27.7504 22.7266 28.2831 23.6125 28.2831C24.482 28.2831 25.0645 27.4545 25.6141 26.6428C26.2293 25.7127 26.4836 24.7996 26.5 24.7573C26.4426 24.7404 24.7773 24.0386 24.7773 22.0685C24.7773 20.3606 26.0898 19.5912 26.1637 19.532C25.2941 18.2468 23.9734 18.213 23.6125 18.213C22.6363 18.213 21.8406 18.8217 21.3402 18.8217C20.7988 18.8217 20.0852 18.2468 19.2402 18.2468C17.6324 18.2468 16 19.6165 16 22.2038C16 23.8103 16.607 25.5098 17.3535 26.609C17.9934 27.539 18.5512 28.3 19.3551 28.3Z" fill="black"/>
<path d="M40.6795 24.521C40.6795 24.2427 40.6362 23.9953 40.5496 23.7788C40.4692 23.5623 40.3239 23.3644 40.1136 23.1851C39.9033 23.0057 39.6064 22.8325 39.223 22.6655C38.8457 22.4924 38.3633 22.3161 37.7757 22.1367C37.1325 21.9388 36.5387 21.7192 35.9944 21.478C35.4564 21.2306 34.9863 20.9461 34.5843 20.6245C34.1823 20.2967 33.8699 19.9225 33.6473 19.502C33.4246 19.0752 33.3133 18.5835 33.3133 18.0269C33.3133 17.4764 33.4277 16.9754 33.6566 16.5239C33.8916 16.0724 34.2225 15.6828 34.6492 15.355C35.0822 15.021 35.5924 14.7643 36.18 14.585C36.7676 14.3994 37.417 14.3066 38.1282 14.3066C39.1302 14.3066 39.993 14.4922 40.7166 14.8633C41.4464 15.2344 42.0062 15.7323 42.3958 16.3569C42.7916 16.9816 42.9896 17.6712 42.9896 18.4258H40.6795C40.6795 17.9805 40.5836 17.5877 40.3919 17.2476C40.2064 16.9012 39.9219 16.6291 39.5384 16.4312C39.1611 16.2332 38.6818 16.1343 38.1004 16.1343C37.5499 16.1343 37.0923 16.2178 36.7274 16.3848C36.3624 16.5518 36.0903 16.7775 35.9109 17.062C35.7316 17.3465 35.6419 17.6681 35.6419 18.0269C35.6419 18.2804 35.7007 18.5124 35.8182 18.7227C35.9357 18.9268 36.1151 19.1185 36.3563 19.2979C36.5975 19.471 36.9005 19.6349 37.2654 19.7896C37.6304 19.9442 38.0602 20.0926 38.555 20.2349C39.3034 20.4575 39.9559 20.7049 40.5125 20.9771C41.0692 21.243 41.533 21.5461 41.9041 21.8862C42.2752 22.2264 42.5535 22.613 42.7391 23.0459C42.9246 23.4727 43.0174 23.9582 43.0174 24.5024C43.0174 25.0715 42.903 25.5848 42.6741 26.0425C42.4453 26.494 42.1175 26.8805 41.6907 27.2021C41.2702 27.5176 40.763 27.7619 40.1693 27.9351C39.5817 28.1021 38.9261 28.1855 38.2025 28.1855C37.553 28.1855 36.9129 28.099 36.282 27.9258C35.6574 27.7526 35.0884 27.4897 34.575 27.1372C34.0617 26.7785 33.6535 26.3332 33.3504 25.8013C33.0473 25.2632 32.8958 24.6354 32.8958 23.918H35.2244C35.2244 24.3571 35.2986 24.7313 35.4471 25.0405C35.6017 25.3498 35.8151 25.6034 36.0872 25.8013C36.3594 25.993 36.6748 26.1353 37.0335 26.228C37.3984 26.3208 37.7881 26.3672 38.2025 26.3672C38.7467 26.3672 39.2013 26.2899 39.5662 26.1353C39.9373 25.9806 40.2156 25.7642 40.4012 25.4858C40.5867 25.2075 40.6795 24.8859 40.6795 24.521ZM47.2479 17.9619V28H45.0027V17.9619H47.2479ZM44.8543 15.3271C44.8543 14.987 44.9656 14.7056 45.1883 14.4829C45.4171 14.2541 45.7326 14.1396 46.1346 14.1396C46.5304 14.1396 46.8428 14.2541 47.0716 14.4829C47.3004 14.7056 47.4149 14.987 47.4149 15.3271C47.4149 15.6611 47.3004 15.9395 47.0716 16.1621C46.8428 16.3848 46.5304 16.4961 46.1346 16.4961C45.7326 16.4961 45.4171 16.3848 45.1883 16.1621C44.9656 15.9395 44.8543 15.6611 44.8543 15.3271ZM56.1263 17.9619H58.158V27.7217C58.158 28.6247 57.9663 29.3916 57.5828 30.0225C57.1994 30.6533 56.6644 31.1326 55.9778 31.4604C55.2913 31.7944 54.4966 31.9614 53.5936 31.9614C53.2101 31.9614 52.7833 31.9058 52.3133 31.7944C51.8494 31.6831 51.3979 31.5037 50.9588 31.2563C50.5259 31.0151 50.164 30.6966 49.8734 30.3008L50.9217 28.9834C51.2804 29.4102 51.6762 29.7225 52.1092 29.9204C52.5421 30.1183 52.9967 30.2173 53.473 30.2173C53.9863 30.2173 54.4223 30.1214 54.7811 29.9297C55.146 29.7441 55.4274 29.4689 55.6253 29.104C55.8232 28.7391 55.9222 28.2938 55.9222 27.7681V20.2349L56.1263 17.9619ZM49.3074 23.0923V22.8975C49.3074 22.1367 49.4002 21.444 49.5858 20.8193C49.7713 20.1885 50.0373 19.6473 50.3836 19.1958C50.73 18.7381 51.1505 18.3887 51.6453 18.1475C52.1401 17.9001 52.6998 17.7764 53.3245 17.7764C53.9739 17.7764 54.5275 17.8939 54.9852 18.1289C55.449 18.3639 55.8356 18.701 56.1448 19.1401C56.4541 19.5731 56.6953 20.0926 56.8685 20.6987C57.0478 21.2987 57.1808 21.9666 57.2674 22.7026V23.3242C57.187 24.0417 57.0509 24.6973 56.8592 25.291C56.6675 25.8848 56.4139 26.3981 56.0984 26.8311C55.783 27.264 55.3934 27.598 54.9295 27.833C54.4718 28.068 53.9306 28.1855 53.306 28.1855C52.6937 28.1855 52.1401 28.0588 51.6453 27.8052C51.1567 27.5516 50.7361 27.196 50.3836 26.7383C50.0373 26.2806 49.7713 25.7425 49.5858 25.124C49.4002 24.4993 49.3074 23.8221 49.3074 23.0923ZM51.5433 22.8975V23.0923C51.5433 23.55 51.5866 23.9767 51.6732 24.3726C51.7659 24.7684 51.9051 25.1178 52.0906 25.4209C52.2824 25.7178 52.5236 25.9528 52.8143 26.126C53.1111 26.293 53.4606 26.3765 53.8626 26.3765C54.3883 26.3765 54.8182 26.2651 55.1522 26.0425C55.4923 25.8198 55.7521 25.5199 55.9315 25.1426C56.117 24.7591 56.2469 24.3324 56.3211 23.8623V22.1831C56.284 21.8182 56.2067 21.478 56.0892 21.1626C55.9778 20.8472 55.8263 20.5719 55.6346 20.3369C55.4429 20.0957 55.2016 19.9102 54.9109 19.7803C54.6203 19.6442 54.277 19.5762 53.8812 19.5762C53.4791 19.5762 53.1297 19.6628 52.8328 19.8359C52.5359 20.0091 52.2916 20.2472 52.0999 20.5503C51.9144 20.8534 51.7752 21.2059 51.6824 21.6079C51.5897 22.0099 51.5433 22.4398 51.5433 22.8975ZM62.6946 20.105V28H60.4588V17.9619H62.5648L62.6946 20.105ZM62.2957 22.6099L61.5721 22.6006C61.5783 21.8893 61.6772 21.2368 61.869 20.6431C62.0669 20.0493 62.339 19.5391 62.6854 19.1123C63.0379 18.6855 63.4585 18.3577 63.9471 18.1289C64.4357 17.8939 64.98 17.7764 65.5799 17.7764C66.0623 17.7764 66.4984 17.8444 66.888 17.9805C67.2838 18.1104 67.6209 18.3237 67.8992 18.6206C68.1837 18.9175 68.4002 19.304 68.5486 19.7803C68.6971 20.2503 68.7713 20.8286 68.7713 21.5151V28H66.5262V21.5059C66.5262 21.0234 66.4551 20.6431 66.3128 20.3647C66.1767 20.0802 65.9757 19.8792 65.7098 19.7617C65.45 19.638 65.1253 19.5762 64.7357 19.5762C64.3522 19.5762 64.0089 19.6566 63.7059 19.8174C63.4028 19.9782 63.1461 20.1978 62.9359 20.4761C62.7318 20.7544 62.574 21.076 62.4627 21.4409C62.3514 21.8058 62.2957 22.1955 62.2957 22.6099ZM78.1785 17.9619V28H75.9334V17.9619H78.1785ZM75.785 15.3271C75.785 14.987 75.8963 14.7056 76.119 14.4829C76.3478 14.2541 76.6632 14.1396 77.0652 14.1396C77.4611 14.1396 77.7734 14.2541 78.0023 14.4829C78.2311 14.7056 78.3455 14.987 78.3455 15.3271C78.3455 15.6611 78.2311 15.9395 78.0023 16.1621C77.7734 16.3848 77.4611 16.4961 77.0652 16.4961C76.6632 16.4961 76.3478 16.3848 76.119 16.1621C75.8963 15.9395 75.785 15.6611 75.785 15.3271ZM82.845 20.105V28H80.6092V17.9619H82.7151L82.845 20.105ZM82.4461 22.6099L81.7225 22.6006C81.7287 21.8893 81.8276 21.2368 82.0193 20.6431C82.2173 20.0493 82.4894 19.5391 82.8358 19.1123C83.1883 18.6855 83.6089 18.3577 84.0975 18.1289C84.5861 17.8939 85.1304 17.7764 85.7303 17.7764C86.2127 17.7764 86.6487 17.8444 87.0384 17.9805C87.4342 18.1104 87.7713 18.3237 88.0496 18.6206C88.3341 18.9175 88.5506 19.304 88.699 19.7803C88.8475 20.2503 88.9217 20.8286 88.9217 21.5151V28H86.6766V21.5059C86.6766 21.0234 86.6054 20.6431 86.4632 20.3647C86.3271 20.0802 86.1261 19.8792 85.8602 19.7617C85.6004 19.638 85.2757 19.5762 84.886 19.5762C84.5026 19.5762 84.1593 19.6566 83.8563 19.8174C83.5532 19.9782 83.2965 20.1978 83.0862 20.4761C82.8821 20.7544 82.7244 21.076 82.6131 21.4409C82.5018 21.8058 82.4461 22.1955 82.4461 22.6099ZM98.6629 25.7734L100.982 17.9619H102.411L102.021 20.2998L99.6834 28H98.4031L98.6629 25.7734ZM97.2991 17.9619L99.1082 25.8105L99.2567 28H97.8279L95.1097 17.9619H97.2991ZM104.582 25.7178L106.335 17.9619H108.515L105.806 28H104.378L104.582 25.7178ZM102.652 17.9619L104.944 25.6807L105.231 28H103.951L101.585 20.2905L101.196 17.9619H102.652ZM112.43 17.9619V28H110.185V17.9619H112.43ZM110.037 15.3271C110.037 14.987 110.148 14.7056 110.371 14.4829C110.6 14.2541 110.915 14.1396 111.317 14.1396C111.713 14.1396 112.025 14.2541 112.254 14.4829C112.483 14.7056 112.597 14.987 112.597 15.3271C112.597 15.6611 112.483 15.9395 112.254 16.1621C112.025 16.3848 111.713 16.4961 111.317 16.4961C110.915 16.4961 110.6 16.3848 110.371 16.1621C110.148 15.9395 110.037 15.6611 110.037 15.3271ZM119.481 17.9619V19.5947H113.822V17.9619H119.481ZM115.455 15.5034H117.691V25.2261C117.691 25.5353 117.734 25.7734 117.821 25.9404C117.913 26.1012 118.04 26.2095 118.201 26.2651C118.362 26.3208 118.55 26.3486 118.767 26.3486C118.922 26.3486 119.07 26.3394 119.212 26.3208C119.354 26.3022 119.469 26.2837 119.555 26.2651L119.565 27.9722C119.379 28.0278 119.163 28.0773 118.915 28.1206C118.674 28.1639 118.396 28.1855 118.08 28.1855C117.567 28.1855 117.112 28.0959 116.717 27.9165C116.321 27.731 116.012 27.431 115.789 27.0166C115.566 26.6022 115.455 26.0518 115.455 25.3652V15.5034ZM123.415 13.75V28H121.188V13.75H123.415ZM123.025 22.6099L122.302 22.6006C122.308 21.9079 122.404 21.2677 122.589 20.6802C122.781 20.0926 123.047 19.5824 123.387 19.1494C123.733 18.7103 124.148 18.3732 124.63 18.1382C125.113 17.897 125.648 17.7764 126.235 17.7764C126.73 17.7764 127.175 17.8444 127.571 17.9805C127.973 18.1165 128.319 18.3361 128.61 18.6392C128.901 18.936 129.12 19.3257 129.269 19.8081C129.423 20.2843 129.501 20.8657 129.501 21.5522V28H127.256V21.5337C127.256 21.0513 127.185 20.6678 127.042 20.3833C126.906 20.0988 126.705 19.8947 126.439 19.771C126.173 19.6411 125.849 19.5762 125.465 19.5762C125.063 19.5762 124.707 19.6566 124.398 19.8174C124.095 19.9782 123.842 20.1978 123.638 20.4761C123.433 20.7544 123.279 21.076 123.174 21.4409C123.075 21.8058 123.025 22.1955 123.025 22.6099ZM141.979 16.292L137.943 28H135.503L140.587 14.4922H142.146L141.979 16.292ZM145.356 28L141.311 16.292L141.135 14.4922H142.702L147.805 28H145.356ZM145.161 22.9902V24.8364H137.813V22.9902H145.161ZM151.173 19.8916V31.8594H148.937V17.9619H150.996L151.173 19.8916ZM157.713 22.8882V23.083C157.713 23.8128 157.627 24.4901 157.453 25.1147C157.286 25.7332 157.036 26.2744 156.702 26.7383C156.374 27.196 155.969 27.5516 155.487 27.8052C155.004 28.0588 154.448 28.1855 153.817 28.1855C153.192 28.1855 152.645 28.0711 152.175 27.8423C151.711 27.6073 151.318 27.2764 150.996 26.8496C150.675 26.4229 150.415 25.9219 150.217 25.3467C150.025 24.7653 149.889 24.1283 149.809 23.4355V22.6841C149.889 21.9481 150.025 21.2801 150.217 20.6802C150.415 20.0802 150.675 19.5638 150.996 19.1309C151.318 18.6979 151.711 18.3639 152.175 18.1289C152.638 17.8939 153.18 17.7764 153.798 17.7764C154.429 17.7764 154.989 17.9001 155.477 18.1475C155.966 18.3887 156.377 18.735 156.711 19.1865C157.045 19.6318 157.296 20.1699 157.463 20.8008C157.63 21.4255 157.713 22.1213 157.713 22.8882ZM155.477 23.083V22.8882C155.477 22.4243 155.434 21.9945 155.347 21.5986C155.261 21.1966 155.125 20.8441 154.939 20.541C154.754 20.238 154.516 20.0029 154.225 19.8359C153.94 19.6628 153.597 19.5762 153.195 19.5762C152.799 19.5762 152.459 19.6442 152.175 19.7803C151.89 19.9102 151.652 20.0926 151.46 20.3276C151.269 20.5627 151.12 20.8379 151.015 21.1533C150.91 21.4626 150.836 21.7996 150.792 22.1646V23.9644C150.867 24.4097 150.993 24.8179 151.173 25.189C151.352 25.5601 151.606 25.8569 151.933 26.0796C152.267 26.2961 152.694 26.4043 153.214 26.4043C153.616 26.4043 153.959 26.3177 154.243 26.1445C154.528 25.9714 154.76 25.7332 154.939 25.4302C155.125 25.1209 155.261 24.7653 155.347 24.3633C155.434 23.9613 155.477 23.5345 155.477 23.083ZM161.86 19.8916V31.8594H159.624V17.9619H161.684L161.86 19.8916ZM168.401 22.8882V23.083C168.401 23.8128 168.314 24.4901 168.141 25.1147C167.974 25.7332 167.723 26.2744 167.389 26.7383C167.062 27.196 166.657 27.5516 166.174 27.8052C165.692 28.0588 165.135 28.1855 164.504 28.1855C163.88 28.1855 163.332 28.0711 162.862 27.8423C162.398 27.6073 162.006 27.2764 161.684 26.8496C161.362 26.4229 161.103 25.9219 160.905 25.3467C160.713 24.7653 160.577 24.1283 160.496 23.4355V22.6841C160.577 21.9481 160.713 21.2801 160.905 20.6802C161.103 20.0802 161.362 19.5638 161.684 19.1309C162.006 18.6979 162.398 18.3639 162.862 18.1289C163.326 17.8939 163.867 17.7764 164.486 17.7764C165.117 17.7764 165.676 17.9001 166.165 18.1475C166.653 18.3887 167.065 18.735 167.399 19.1865C167.733 19.6318 167.983 20.1699 168.15 20.8008C168.317 21.4255 168.401 22.1213 168.401 22.8882ZM166.165 23.083V22.8882C166.165 22.4243 166.122 21.9945 166.035 21.5986C165.948 21.1966 165.812 20.8441 165.627 20.541C165.441 20.238 165.203 20.0029 164.912 19.8359C164.628 19.6628 164.285 19.5762 163.883 19.5762C163.487 19.5762 163.147 19.6442 162.862 19.7803C162.578 19.9102 162.339 20.0926 162.148 20.3276C161.956 20.5627 161.808 20.8379 161.702 21.1533C161.597 21.4626 161.523 21.7996 161.48 22.1646V23.9644C161.554 24.4097 161.681 24.8179 161.86 25.189C162.04 25.5601 162.293 25.8569 162.621 26.0796C162.955 26.2961 163.382 26.4043 163.901 26.4043C164.303 26.4043 164.646 26.3177 164.931 26.1445C165.215 25.9714 165.447 25.7332 165.627 25.4302C165.812 25.1209 165.948 24.7653 166.035 24.3633C166.122 23.9613 166.165 23.5345 166.165 23.083ZM172.696 13.75V28H170.451V13.75H172.696ZM179.571 28.1855C178.828 28.1855 178.157 28.0649 177.557 27.8237C176.964 27.5763 176.457 27.2331 176.036 26.7939C175.622 26.3548 175.303 25.8384 175.08 25.2446C174.858 24.6509 174.746 24.0107 174.746 23.3242V22.9531C174.746 22.1676 174.861 21.4564 175.09 20.8193C175.319 20.1823 175.637 19.638 176.045 19.1865C176.453 18.7288 176.936 18.3794 177.492 18.1382C178.049 17.897 178.652 17.7764 179.302 17.7764C180.019 17.7764 180.647 17.897 181.185 18.1382C181.723 18.3794 182.168 18.7196 182.521 19.1587C182.88 19.5916 183.145 20.1081 183.319 20.708C183.498 21.3079 183.588 21.9697 183.588 22.6934V23.6489H175.832V22.0439H181.38V21.8677C181.367 21.4657 181.287 21.0884 181.138 20.7358C180.996 20.3833 180.777 20.0988 180.48 19.8823C180.183 19.6659 179.787 19.5576 179.292 19.5576C178.921 19.5576 178.59 19.638 178.3 19.7988C178.015 19.9535 177.777 20.1792 177.585 20.4761C177.394 20.7729 177.245 21.1317 177.14 21.5522C177.041 21.9666 176.992 22.4336 176.992 22.9531V23.3242C176.992 23.7633 177.05 24.1715 177.168 24.5488C177.291 24.9199 177.471 25.2446 177.706 25.5229C177.941 25.8013 178.225 26.0208 178.559 26.1816C178.893 26.3363 179.274 26.4136 179.701 26.4136C180.239 26.4136 180.718 26.3053 181.138 26.0889C181.559 25.8724 181.924 25.5662 182.233 25.1704L183.411 26.3115C183.195 26.627 182.914 26.93 182.567 27.2207C182.221 27.5052 181.797 27.7371 181.296 27.9165C180.801 28.0959 180.226 28.1855 179.571 28.1855Z" fill="black"/>
</svg>
