<svg width="250" height="45" viewBox="0 0 250 45" fill="none" xmlns="http://www.w3.org/2000/svg">
<rect x="0.5" y="0.5" width="249" height="44" rx="5.5" fill="white"/>
<rect x="0.5" y="0.5" width="249" height="44" rx="5.5" stroke="#747775"/>
<path fill-rule="evenodd" clip-rule="evenodd" d="M68.14 22.7044C68.14 22.0663 68.0827 21.4526 67.9764 20.8635H59.5V24.3449H64.3436C64.135 25.4699 63.5009 26.4231 62.5477 27.0613V29.3194H65.4564C67.1582 27.7526 68.14 25.4453 68.14 22.7044Z" fill="#4285F4"/>
<path fill-rule="evenodd" clip-rule="evenodd" d="M59.4998 31.5C61.9298 31.5 63.967 30.6941 65.4561 29.3195L62.5475 27.0613C61.7416 27.6013 60.7107 27.9204 59.4998 27.9204C57.1557 27.9204 55.1716 26.3372 54.4638 24.21H51.457V26.5418C52.9379 29.4831 55.9816 31.5 59.4998 31.5Z" fill="#34A853"/>
<path fill-rule="evenodd" clip-rule="evenodd" d="M54.4641 24.2101C54.2841 23.6701 54.1818 23.0933 54.1818 22.5001C54.1818 21.9069 54.2841 21.3301 54.4641 20.7901V18.4583H51.4573C50.8477 19.6733 50.5 21.0478 50.5 22.5001C50.5 23.9523 50.8477 25.3269 51.4573 26.5419L54.4641 24.2101Z" fill="#FBBC05"/>
<path fill-rule="evenodd" clip-rule="evenodd" d="M59.4998 17.0795C60.8211 17.0795 62.0075 17.5336 62.9402 18.4255L65.5216 15.8441C63.9629 14.3918 61.9257 13.5 59.4998 13.5C55.9816 13.5 52.9379 15.5168 51.457 18.4582L54.4638 20.79C55.1716 18.6627 57.1557 17.0795 59.4998 17.0795Z" fill="#EA4335"/>
<path d="M84.748 24.9365C84.748 24.7314 84.7161 24.5492 84.6523 24.3896C84.5931 24.2301 84.486 24.0843 84.3311 23.9521C84.1761 23.82 83.9574 23.6924 83.6748 23.5693C83.3968 23.4417 83.0413 23.3118 82.6084 23.1797C82.1344 23.0339 81.6969 22.8721 81.2959 22.6943C80.8994 22.512 80.5531 22.3024 80.2568 22.0654C79.9606 21.8239 79.7305 21.5482 79.5664 21.2383C79.4023 20.9238 79.3203 20.5615 79.3203 20.1514C79.3203 19.7458 79.4046 19.3766 79.5732 19.0439C79.7464 18.7113 79.9902 18.4242 80.3047 18.1826C80.6237 17.9365 80.9997 17.7474 81.4326 17.6152C81.8656 17.4785 82.3441 17.4102 82.8682 17.4102C83.6064 17.4102 84.2422 17.5469 84.7754 17.8203C85.3132 18.0938 85.7256 18.4606 86.0127 18.9209C86.3044 19.3812 86.4502 19.8893 86.4502 20.4453H84.748C84.748 20.1172 84.6774 19.8278 84.5361 19.5771C84.3994 19.3219 84.1898 19.1214 83.9072 18.9756C83.6292 18.8298 83.276 18.7568 82.8477 18.7568C82.4421 18.7568 82.1048 18.8184 81.8359 18.9414C81.5671 19.0645 81.3665 19.2308 81.2344 19.4404C81.1022 19.6501 81.0361 19.887 81.0361 20.1514C81.0361 20.3382 81.0794 20.5091 81.166 20.6641C81.2526 20.8145 81.3848 20.9557 81.5625 21.0879C81.7402 21.2155 81.9635 21.3363 82.2324 21.4502C82.5013 21.5641 82.818 21.6735 83.1826 21.7783C83.734 21.9424 84.2148 22.1247 84.625 22.3252C85.0352 22.5212 85.377 22.7445 85.6504 22.9951C85.9238 23.2458 86.1289 23.5306 86.2656 23.8496C86.4023 24.1641 86.4707 24.5218 86.4707 24.9229C86.4707 25.3421 86.3864 25.7204 86.2178 26.0576C86.0492 26.3903 85.8076 26.6751 85.4932 26.9121C85.1833 27.1445 84.8096 27.3245 84.3721 27.4521C83.9391 27.5752 83.4561 27.6367 82.9229 27.6367C82.4443 27.6367 81.9727 27.5729 81.5078 27.4453C81.0475 27.3177 80.6283 27.124 80.25 26.8643C79.8717 26.5999 79.571 26.2718 79.3477 25.8799C79.1243 25.4834 79.0127 25.0208 79.0127 24.4922H80.7285C80.7285 24.8158 80.7832 25.0915 80.8926 25.3193C81.0065 25.5472 81.1637 25.734 81.3643 25.8799C81.5648 26.0212 81.7972 26.126 82.0615 26.1943C82.3304 26.2627 82.6175 26.2969 82.9229 26.2969C83.3239 26.2969 83.6589 26.2399 83.9277 26.126C84.2012 26.012 84.4062 25.8525 84.543 25.6475C84.6797 25.4424 84.748 25.2054 84.748 24.9365ZM89.5879 20.1035V27.5H87.9336V20.1035H89.5879ZM87.8242 18.1621C87.8242 17.9115 87.9062 17.7041 88.0703 17.54C88.2389 17.3714 88.4714 17.2871 88.7676 17.2871C89.0592 17.2871 89.2894 17.3714 89.458 17.54C89.6266 17.7041 89.7109 17.9115 89.7109 18.1621C89.7109 18.4082 89.6266 18.6133 89.458 18.7773C89.2894 18.9414 89.0592 19.0234 88.7676 19.0234C88.4714 19.0234 88.2389 18.9414 88.0703 18.7773C87.9062 18.6133 87.8242 18.4082 87.8242 18.1621ZM96.1299 20.1035H97.627V27.2949C97.627 27.9603 97.4857 28.5254 97.2031 28.9902C96.9206 29.4551 96.5264 29.8083 96.0205 30.0498C95.5146 30.2959 94.929 30.4189 94.2637 30.4189C93.9811 30.4189 93.6667 30.3779 93.3203 30.2959C92.9785 30.2139 92.6458 30.0817 92.3223 29.8994C92.0033 29.7217 91.7367 29.487 91.5225 29.1953L92.2949 28.2246C92.5592 28.5391 92.8509 28.7692 93.1699 28.915C93.4889 29.0609 93.8239 29.1338 94.1748 29.1338C94.5531 29.1338 94.8743 29.0632 95.1387 28.9219C95.4076 28.7852 95.6149 28.5824 95.7607 28.3135C95.9066 28.0446 95.9795 27.7165 95.9795 27.3291V21.7783L96.1299 20.1035ZM91.1055 23.8838V23.7402C91.1055 23.1797 91.1738 22.6693 91.3105 22.209C91.4473 21.7441 91.6432 21.3454 91.8984 21.0127C92.1536 20.6755 92.4635 20.418 92.8281 20.2402C93.1927 20.0579 93.6051 19.9668 94.0654 19.9668C94.5439 19.9668 94.9518 20.0534 95.2891 20.2266C95.6309 20.3997 95.9157 20.6481 96.1436 20.9717C96.3714 21.2907 96.5492 21.6735 96.6768 22.1201C96.8089 22.5622 96.9069 23.0544 96.9707 23.5967V24.0547C96.9115 24.5833 96.8112 25.0664 96.6699 25.5039C96.5286 25.9414 96.3418 26.3197 96.1094 26.6387C95.877 26.9577 95.5898 27.2038 95.248 27.377C94.9108 27.5501 94.512 27.6367 94.0518 27.6367C93.6006 27.6367 93.1927 27.5433 92.8281 27.3564C92.4681 27.1696 92.1582 26.9076 91.8984 26.5703C91.6432 26.2331 91.4473 25.8366 91.3105 25.3809C91.1738 24.9206 91.1055 24.4215 91.1055 23.8838ZM92.7529 23.7402V23.8838C92.7529 24.221 92.7848 24.5355 92.8486 24.8271C92.917 25.1188 93.0195 25.3763 93.1562 25.5996C93.2975 25.8184 93.4753 25.9915 93.6895 26.1191C93.9082 26.2422 94.1657 26.3037 94.4619 26.3037C94.8493 26.3037 95.166 26.2217 95.4121 26.0576C95.6628 25.8936 95.8542 25.6725 95.9863 25.3945C96.123 25.112 96.2188 24.7975 96.2734 24.4512V23.2139C96.2461 22.945 96.1891 22.6943 96.1025 22.4619C96.0205 22.2295 95.9089 22.0267 95.7676 21.8535C95.6263 21.6758 95.4486 21.5391 95.2344 21.4434C95.0202 21.3431 94.7673 21.293 94.4756 21.293C94.1794 21.293 93.9219 21.3568 93.7031 21.4844C93.4844 21.612 93.3044 21.7874 93.1631 22.0107C93.0264 22.234 92.9238 22.4938 92.8555 22.79C92.7871 23.0863 92.7529 23.403 92.7529 23.7402ZM100.97 21.6826V27.5H99.3223V20.1035H100.874L100.97 21.6826ZM100.676 23.5283L100.143 23.5215C100.147 22.9974 100.22 22.5166 100.361 22.0791C100.507 21.6416 100.708 21.2656 100.963 20.9512C101.223 20.6367 101.533 20.3952 101.893 20.2266C102.253 20.0534 102.654 19.9668 103.096 19.9668C103.451 19.9668 103.772 20.0169 104.06 20.1172C104.351 20.2129 104.6 20.3701 104.805 20.5889C105.014 20.8076 105.174 21.0924 105.283 21.4434C105.393 21.7897 105.447 22.2158 105.447 22.7217V27.5H103.793V22.7148C103.793 22.3594 103.741 22.0791 103.636 21.874C103.535 21.6644 103.387 21.5163 103.191 21.4297C103 21.3385 102.761 21.293 102.474 21.293C102.191 21.293 101.938 21.3522 101.715 21.4707C101.492 21.5892 101.302 21.751 101.147 21.9561C100.997 22.1611 100.881 22.3981 100.799 22.667C100.717 22.9359 100.676 23.223 100.676 23.5283ZM112.379 20.1035V27.5H110.725V20.1035H112.379ZM110.615 18.1621C110.615 17.9115 110.697 17.7041 110.861 17.54C111.03 17.3714 111.262 17.2871 111.559 17.2871C111.85 17.2871 112.08 17.3714 112.249 17.54C112.418 17.7041 112.502 17.9115 112.502 18.1621C112.502 18.4082 112.418 18.6133 112.249 18.7773C112.08 18.9414 111.85 19.0234 111.559 19.0234C111.262 19.0234 111.03 18.9414 110.861 18.7773C110.697 18.6133 110.615 18.4082 110.615 18.1621ZM115.817 21.6826V27.5H114.17V20.1035H115.722L115.817 21.6826ZM115.523 23.5283L114.99 23.5215C114.995 22.9974 115.068 22.5166 115.209 22.0791C115.355 21.6416 115.555 21.2656 115.811 20.9512C116.07 20.6367 116.38 20.3952 116.74 20.2266C117.1 20.0534 117.501 19.9668 117.943 19.9668C118.299 19.9668 118.62 20.0169 118.907 20.1172C119.199 20.2129 119.447 20.3701 119.652 20.5889C119.862 20.8076 120.021 21.0924 120.131 21.4434C120.24 21.7897 120.295 22.2158 120.295 22.7217V27.5H118.641V22.7148C118.641 22.3594 118.588 22.0791 118.483 21.874C118.383 21.6644 118.235 21.5163 118.039 21.4297C117.848 21.3385 117.608 21.293 117.321 21.293C117.039 21.293 116.786 21.3522 116.562 21.4707C116.339 21.5892 116.15 21.751 115.995 21.9561C115.845 22.1611 115.729 22.3981 115.646 22.667C115.564 22.9359 115.523 23.223 115.523 23.5283ZM127.473 25.8594L129.182 20.1035H130.234L129.947 21.8262L128.225 27.5H127.281L127.473 25.8594ZM126.468 20.1035L127.801 25.8867L127.91 27.5H126.857L124.854 20.1035H126.468ZM131.834 25.8184L133.126 20.1035H134.732L132.736 27.5H131.684L131.834 25.8184ZM130.412 20.1035L132.101 25.791L132.312 27.5H131.369L129.626 21.8193L129.339 20.1035H130.412ZM137.617 20.1035V27.5H135.963V20.1035H137.617ZM135.854 18.1621C135.854 17.9115 135.936 17.7041 136.1 17.54C136.268 17.3714 136.501 17.2871 136.797 17.2871C137.089 17.2871 137.319 17.3714 137.487 17.54C137.656 17.7041 137.74 17.9115 137.74 18.1621C137.74 18.4082 137.656 18.6133 137.487 18.7773C137.319 18.9414 137.089 19.0234 136.797 19.0234C136.501 19.0234 136.268 18.9414 136.1 18.7773C135.936 18.6133 135.854 18.4082 135.854 18.1621ZM142.812 20.1035V21.3066H138.643V20.1035H142.812ZM139.846 18.292H141.493V25.4561C141.493 25.6839 141.525 25.8594 141.589 25.9824C141.657 26.1009 141.751 26.1807 141.869 26.2217C141.988 26.2627 142.127 26.2832 142.286 26.2832C142.4 26.2832 142.509 26.2764 142.614 26.2627C142.719 26.249 142.803 26.2354 142.867 26.2217L142.874 27.4795C142.737 27.5205 142.578 27.557 142.396 27.5889C142.218 27.6208 142.013 27.6367 141.78 27.6367C141.402 27.6367 141.067 27.5706 140.775 27.4385C140.484 27.3018 140.256 27.0807 140.092 26.7754C139.928 26.4701 139.846 26.0645 139.846 25.5586V18.292ZM145.711 17V27.5H144.07V17H145.711ZM145.424 23.5283L144.891 23.5215C144.895 23.0111 144.966 22.5394 145.103 22.1064C145.244 21.6735 145.44 21.2975 145.69 20.9785C145.946 20.6549 146.251 20.4066 146.606 20.2334C146.962 20.0557 147.356 19.9668 147.789 19.9668C148.154 19.9668 148.482 20.0169 148.773 20.1172C149.07 20.2174 149.325 20.3792 149.539 20.6025C149.753 20.8213 149.915 21.1084 150.024 21.4639C150.138 21.8148 150.195 22.2432 150.195 22.749V27.5H148.541V22.7354C148.541 22.3799 148.489 22.0973 148.384 21.8877C148.284 21.6781 148.135 21.5277 147.939 21.4365C147.743 21.3408 147.504 21.293 147.222 21.293C146.925 21.293 146.663 21.3522 146.436 21.4707C146.212 21.5892 146.025 21.751 145.875 21.9561C145.725 22.1611 145.611 22.3981 145.533 22.667C145.46 22.9359 145.424 23.223 145.424 23.5283ZM163.156 22.4141V26.2148C163.015 26.4017 162.794 26.6068 162.493 26.8301C162.197 27.0488 161.803 27.238 161.311 27.3975C160.818 27.557 160.205 27.6367 159.472 27.6367C158.847 27.6367 158.275 27.5319 157.756 27.3223C157.236 27.1081 156.787 26.7959 156.409 26.3857C156.035 25.9756 155.746 25.4766 155.541 24.8887C155.336 24.2962 155.233 23.6217 155.233 22.8652V22.1748C155.233 21.4229 155.327 20.7529 155.514 20.165C155.705 19.5726 155.979 19.0713 156.334 18.6611C156.689 18.251 157.118 17.9411 157.619 17.7314C158.125 17.5173 158.697 17.4102 159.335 17.4102C160.151 17.4102 160.825 17.5469 161.358 17.8203C161.896 18.0892 162.311 18.4629 162.603 18.9414C162.894 19.4199 163.079 19.9668 163.156 20.582H161.475C161.42 20.2357 161.313 19.9258 161.153 19.6523C160.998 19.3789 160.775 19.1647 160.483 19.0098C160.196 18.8503 159.823 18.7705 159.362 18.7705C158.966 18.7705 158.617 18.8457 158.316 18.9961C158.016 19.1465 157.765 19.3675 157.564 19.6592C157.368 19.9508 157.22 20.3063 157.12 20.7256C157.02 21.1449 156.97 21.6234 156.97 22.1611V22.8652C156.97 23.4121 157.027 23.8975 157.141 24.3213C157.259 24.7451 157.428 25.1029 157.646 25.3945C157.87 25.6862 158.141 25.9072 158.46 26.0576C158.779 26.2035 159.139 26.2764 159.54 26.2764C159.932 26.2764 160.253 26.2445 160.504 26.1807C160.755 26.1123 160.953 26.0326 161.099 25.9414C161.249 25.8457 161.365 25.7546 161.447 25.668V23.6924H159.376V22.4141H163.156ZM164.578 23.8838V23.7266C164.578 23.1934 164.656 22.6989 164.811 22.2432C164.965 21.7829 165.189 21.3841 165.48 21.0469C165.777 20.7051 166.137 20.4408 166.561 20.2539C166.989 20.0625 167.472 19.9668 168.01 19.9668C168.552 19.9668 169.035 20.0625 169.459 20.2539C169.887 20.4408 170.25 20.7051 170.546 21.0469C170.842 21.3841 171.068 21.7829 171.223 22.2432C171.378 22.6989 171.455 23.1934 171.455 23.7266V23.8838C171.455 24.417 171.378 24.9115 171.223 25.3672C171.068 25.8229 170.842 26.2217 170.546 26.5635C170.25 26.9007 169.89 27.165 169.466 27.3564C169.042 27.5433 168.561 27.6367 168.023 27.6367C167.481 27.6367 166.996 27.5433 166.567 27.3564C166.144 27.165 165.784 26.9007 165.487 26.5635C165.191 26.2217 164.965 25.8229 164.811 25.3672C164.656 24.9115 164.578 24.417 164.578 23.8838ZM166.226 23.7266V23.8838C166.226 24.2165 166.26 24.5309 166.328 24.8271C166.396 25.1234 166.504 25.3831 166.649 25.6064C166.795 25.8298 166.982 26.0052 167.21 26.1328C167.438 26.2604 167.709 26.3242 168.023 26.3242C168.329 26.3242 168.593 26.2604 168.816 26.1328C169.044 26.0052 169.231 25.8298 169.377 25.6064C169.523 25.3831 169.63 25.1234 169.698 24.8271C169.771 24.5309 169.808 24.2165 169.808 23.8838V23.7266C169.808 23.3984 169.771 23.0885 169.698 22.7969C169.63 22.5007 169.521 22.2386 169.37 22.0107C169.224 21.7829 169.037 21.6051 168.81 21.4775C168.586 21.3454 168.32 21.2793 168.01 21.2793C167.7 21.2793 167.431 21.3454 167.203 21.4775C166.98 21.6051 166.795 21.7829 166.649 22.0107C166.504 22.2386 166.396 22.5007 166.328 22.7969C166.26 23.0885 166.226 23.3984 166.226 23.7266ZM172.521 23.8838V23.7266C172.521 23.1934 172.599 22.6989 172.754 22.2432C172.909 21.7829 173.132 21.3841 173.424 21.0469C173.72 20.7051 174.08 20.4408 174.504 20.2539C174.932 20.0625 175.415 19.9668 175.953 19.9668C176.495 19.9668 176.979 20.0625 177.402 20.2539C177.831 20.4408 178.193 20.7051 178.489 21.0469C178.785 21.3841 179.011 21.7829 179.166 22.2432C179.321 22.6989 179.398 23.1934 179.398 23.7266V23.8838C179.398 24.417 179.321 24.9115 179.166 25.3672C179.011 25.8229 178.785 26.2217 178.489 26.5635C178.193 26.9007 177.833 27.165 177.409 27.3564C176.985 27.5433 176.505 27.6367 175.967 27.6367C175.424 27.6367 174.939 27.5433 174.511 27.3564C174.087 27.165 173.727 26.9007 173.431 26.5635C173.134 26.2217 172.909 25.8229 172.754 25.3672C172.599 24.9115 172.521 24.417 172.521 23.8838ZM174.169 23.7266V23.8838C174.169 24.2165 174.203 24.5309 174.271 24.8271C174.34 25.1234 174.447 25.3831 174.593 25.6064C174.739 25.8298 174.925 26.0052 175.153 26.1328C175.381 26.2604 175.652 26.3242 175.967 26.3242C176.272 26.3242 176.536 26.2604 176.76 26.1328C176.988 26.0052 177.174 25.8298 177.32 25.6064C177.466 25.3831 177.573 25.1234 177.642 24.8271C177.715 24.5309 177.751 24.2165 177.751 23.8838V23.7266C177.751 23.3984 177.715 23.0885 177.642 22.7969C177.573 22.5007 177.464 22.2386 177.313 22.0107C177.168 21.7829 176.981 21.6051 176.753 21.4775C176.53 21.3454 176.263 21.2793 175.953 21.2793C175.643 21.2793 175.374 21.3454 175.146 21.4775C174.923 21.6051 174.739 21.7829 174.593 22.0107C174.447 22.2386 174.34 22.5007 174.271 22.7969C174.203 23.0885 174.169 23.3984 174.169 23.7266ZM185.517 20.1035H187.014V27.2949C187.014 27.9603 186.872 28.5254 186.59 28.9902C186.307 29.4551 185.913 29.8083 185.407 30.0498C184.901 30.2959 184.316 30.4189 183.65 30.4189C183.368 30.4189 183.053 30.3779 182.707 30.2959C182.365 30.2139 182.033 30.0817 181.709 29.8994C181.39 29.7217 181.123 29.487 180.909 29.1953L181.682 28.2246C181.946 28.5391 182.238 28.7692 182.557 28.915C182.876 29.0609 183.211 29.1338 183.562 29.1338C183.94 29.1338 184.261 29.0632 184.525 28.9219C184.794 28.7852 185.002 28.5824 185.147 28.3135C185.293 28.0446 185.366 27.7165 185.366 27.3291V21.7783L185.517 20.1035ZM180.492 23.8838V23.7402C180.492 23.1797 180.561 22.6693 180.697 22.209C180.834 21.7441 181.03 21.3454 181.285 21.0127C181.54 20.6755 181.85 20.418 182.215 20.2402C182.579 20.0579 182.992 19.9668 183.452 19.9668C183.931 19.9668 184.339 20.0534 184.676 20.2266C185.018 20.3997 185.302 20.6481 185.53 20.9717C185.758 21.2907 185.936 21.6735 186.063 22.1201C186.196 22.5622 186.294 23.0544 186.357 23.5967V24.0547C186.298 24.5833 186.198 25.0664 186.057 25.5039C185.915 25.9414 185.729 26.3197 185.496 26.6387C185.264 26.9577 184.977 27.2038 184.635 27.377C184.298 27.5501 183.899 27.6367 183.438 27.6367C182.987 27.6367 182.579 27.5433 182.215 27.3564C181.855 27.1696 181.545 26.9076 181.285 26.5703C181.03 26.2331 180.834 25.8366 180.697 25.3809C180.561 24.9206 180.492 24.4215 180.492 23.8838ZM182.14 23.7402V23.8838C182.14 24.221 182.172 24.5355 182.235 24.8271C182.304 25.1188 182.406 25.3763 182.543 25.5996C182.684 25.8184 182.862 25.9915 183.076 26.1191C183.295 26.2422 183.552 26.3037 183.849 26.3037C184.236 26.3037 184.553 26.2217 184.799 26.0576C185.049 25.8936 185.241 25.6725 185.373 25.3945C185.51 25.112 185.605 24.7975 185.66 24.4512V23.2139C185.633 22.945 185.576 22.6943 185.489 22.4619C185.407 22.2295 185.296 22.0267 185.154 21.8535C185.013 21.6758 184.835 21.5391 184.621 21.4434C184.407 21.3431 184.154 21.293 183.862 21.293C183.566 21.293 183.309 21.3568 183.09 21.4844C182.871 21.612 182.691 21.7874 182.55 22.0107C182.413 22.234 182.311 22.4938 182.242 22.79C182.174 23.0863 182.14 23.403 182.14 23.7402ZM190.486 17V27.5H188.832V17H190.486ZM195.552 27.6367C195.005 27.6367 194.51 27.5479 194.068 27.3701C193.631 27.1878 193.257 26.9349 192.947 26.6113C192.642 26.2878 192.407 25.9072 192.243 25.4697C192.079 25.0322 191.997 24.5605 191.997 24.0547V23.7812C191.997 23.2025 192.081 22.6784 192.25 22.209C192.419 21.7396 192.653 21.3385 192.954 21.0059C193.255 20.6686 193.61 20.4111 194.021 20.2334C194.431 20.0557 194.875 19.9668 195.354 19.9668C195.882 19.9668 196.345 20.0557 196.741 20.2334C197.138 20.4111 197.466 20.6618 197.726 20.9854C197.99 21.3044 198.186 21.6849 198.313 22.127C198.446 22.569 198.512 23.0566 198.512 23.5898V24.2939H192.797V23.1113H196.885V22.9814C196.876 22.6852 196.816 22.4072 196.707 22.1475C196.602 21.8877 196.44 21.6781 196.222 21.5186C196.003 21.359 195.711 21.2793 195.347 21.2793C195.073 21.2793 194.829 21.3385 194.615 21.457C194.406 21.571 194.23 21.7373 194.089 21.9561C193.948 22.1748 193.838 22.4391 193.761 22.749C193.688 23.0544 193.651 23.3984 193.651 23.7812V24.0547C193.651 24.3783 193.695 24.679 193.781 24.957C193.872 25.2305 194.005 25.4697 194.178 25.6748C194.351 25.8799 194.561 26.0417 194.807 26.1602C195.053 26.2741 195.333 26.3311 195.647 26.3311C196.044 26.3311 196.397 26.2513 196.707 26.0918C197.017 25.9323 197.286 25.7067 197.514 25.415L198.382 26.2559C198.222 26.4883 198.015 26.7116 197.76 26.9258C197.505 27.1354 197.192 27.3063 196.823 27.4385C196.459 27.5706 196.035 27.6367 195.552 27.6367Z" fill="#1F1F1F"/>
</svg>
