<svg width="600" height="90" viewBox="0 0 600 90" fill="none" xmlns="http://www.w3.org/2000/svg">
<rect width="600" height="90" rx="12" fill="#FEE500"/>
<path opacity="0.902" fill-rule="evenodd" clip-rule="evenodd" d="M187 28.888C177.58 28.888 169 36.46 169 42.866C169 47.666 172.116 51.9 176.862 54.416L174.866 61.748C174.688 62.398 175.426 62.914 175.992 62.54L184.746 56.73C185.484 56.802 186.236 56.844 187 56.844C196.94 56.844 205 50.586 205 42.866C205 36.46 196.94 28.888 187 28.888Z" fill="black"/>
<path d="M223.494 55.782V36.323H225.814V53.839H234.601V55.782H223.494ZM243.356 56.043C241.326 56.043 239.731 55.4147 238.571 54.158C237.43 52.9013 236.86 51.1323 236.86 48.851V48.416C236.86 46.1733 237.449 44.4043 238.629 43.109C239.827 41.7943 241.413 41.137 243.385 41.137C245.415 41.137 247.01 41.775 248.17 43.051C249.33 44.3077 249.91 46.067 249.91 48.329V48.735C249.91 50.997 249.31 52.7853 248.112 54.1C246.913 55.3953 245.328 56.043 243.356 56.043ZM243.414 54.216C244.728 54.216 245.763 53.7713 246.517 52.882C247.271 51.9733 247.648 50.678 247.648 48.996V48.271C247.648 46.3957 247.251 45.0423 246.459 44.211C245.685 43.3797 244.651 42.964 243.356 42.964C242.041 42.964 241.007 43.4183 240.253 44.327C239.499 45.2357 239.122 46.5213 239.122 48.184V48.909C239.122 52.447 240.552 54.216 243.414 54.216ZM258.267 60.045C256.121 60.045 254.506 59.7453 253.424 59.146C252.36 58.566 251.829 57.7443 251.829 56.681C251.829 55.3277 252.737 54.3513 254.555 53.752V53.607C253.588 53.3363 253.105 52.737 253.105 51.809C253.105 51.0163 253.646 50.2237 254.729 49.431C253.53 48.6383 252.931 47.4397 252.931 45.835V45.777C252.931 44.3077 253.424 43.167 254.41 42.355C255.415 41.543 256.73 41.137 258.354 41.137C259.03 41.137 259.707 41.2143 260.384 41.369H265.256V43.08H262.675C263.371 43.7373 263.719 44.617 263.719 45.719V45.748C263.719 47.2367 263.216 48.3773 262.211 49.17C261.205 49.9627 259.91 50.359 258.325 50.359C257.455 50.359 256.633 50.2237 255.86 49.953C255.415 50.359 255.193 50.7457 255.193 51.113C255.193 51.8283 255.666 52.186 256.614 52.186H260.587C263.622 52.186 265.14 53.3363 265.14 55.637C265.14 56.9517 264.569 58.015 263.429 58.827C262.307 59.639 260.587 60.045 258.267 60.045ZM258.209 58.305C261.283 58.305 262.82 57.5123 262.82 55.927C262.82 55.2697 262.626 54.8153 262.24 54.564C261.853 54.2933 261.186 54.158 260.239 54.158H256.092C254.796 54.6027 254.149 55.347 254.149 56.391C254.149 57.667 255.502 58.305 258.209 58.305ZM258.325 48.619C260.432 48.619 261.486 47.691 261.486 45.835V45.69C261.486 43.776 260.432 42.819 258.325 42.819C257.339 42.819 256.556 43.0703 255.976 43.573C255.415 44.0757 255.135 44.7717 255.135 45.661V45.806C255.135 46.734 255.415 47.4397 255.976 47.923C256.556 48.387 257.339 48.619 258.325 48.619ZM268.007 55.782V41.427H270.211V55.782H268.007ZM267.978 38.527V36.207H270.24V38.527H267.978ZM274.49 55.782V41.398H276.607V42.645H276.723C278.27 41.6397 279.923 41.137 281.682 41.137C283.113 41.137 284.166 41.4463 284.843 42.065C285.52 42.6837 285.858 43.6793 285.858 45.052V55.782H283.654V45.516C283.654 44.6267 283.451 43.9983 283.045 43.631C282.639 43.2443 281.875 43.051 280.754 43.051C279.555 43.051 278.202 43.399 276.694 44.095V55.782H274.49ZM300.44 55.782L296.351 41.398H298.729L301.687 52.911H301.803L305.254 41.398H307.168L310.648 52.911H310.764L313.722 41.398H315.839L311.75 55.782H309.517L306.182 44.82H306.095L302.702 55.782H300.44ZM318.842 55.782V41.427H321.046V55.782H318.842ZM318.813 38.527V36.207H321.075V38.527H318.813ZM329.878 55.956C327.384 55.956 326.137 54.8153 326.137 52.534V43.254H324.078V41.427H326.137V38.005H328.341V41.427H332.024V43.254H328.341V52.186C328.341 52.9013 328.486 53.404 328.776 53.694C329.085 53.984 329.646 54.129 330.458 54.129C331.115 54.129 331.734 54.042 332.314 53.868V55.376C331.463 55.7627 330.651 55.956 329.878 55.956ZM335.464 55.782V35.018H337.668V42.645H337.813C339.205 41.6397 340.819 41.137 342.656 41.137C344.086 41.137 345.14 41.456 345.817 42.094C346.493 42.7127 346.832 43.7083 346.832 45.081V55.782H344.628V45.516C344.628 44.6267 344.425 43.9983 344.019 43.631C343.613 43.2443 342.849 43.051 341.728 43.051C340.49 43.051 339.137 43.4087 337.668 44.124V55.782H335.464ZM369.969 55.782L361.733 45.864L369.853 36.323H372.318L364.43 45.632L372.666 55.782H369.969ZM359.036 55.782V36.323H361.327V55.782H359.036ZM379.074 56.043C377.721 56.043 376.629 55.7047 375.797 55.028C374.985 54.332 374.579 53.3267 374.579 52.012C374.579 49.5567 376.039 48.1647 378.958 47.836L382.844 47.372V45.864C382.844 44.7813 382.583 44.0467 382.061 43.66C381.539 43.254 380.611 43.051 379.277 43.051C378.059 43.051 376.919 43.2057 375.855 43.515V41.92C377.112 41.398 378.543 41.137 380.147 41.137C383.434 41.137 385.077 42.5483 385.077 45.371V55.782H383.279L383.047 54.535H382.902C382.071 55.5403 380.795 56.043 379.074 56.043ZM379.625 54.303C381.075 54.303 382.148 53.955 382.844 53.259V49.025L379.538 49.402C378.63 49.4987 377.963 49.75 377.537 50.156C377.112 50.5427 376.899 51.142 376.899 51.954C376.899 52.7273 377.141 53.317 377.624 53.723C378.108 54.1097 378.775 54.303 379.625 54.303ZM389.244 55.782V35.018H391.448V55.782H389.244ZM397.77 55.782L391.68 48.358L397.48 41.427H399.858L394.203 48.184L400.322 55.782H397.77ZM406.602 56.043C405.248 56.043 404.156 55.7047 403.325 55.028C402.513 54.332 402.107 53.3267 402.107 52.012C402.107 49.5567 403.566 48.1647 406.486 47.836L410.372 47.372V45.864C410.372 44.7813 410.111 44.0467 409.589 43.66C409.067 43.254 408.139 43.051 406.805 43.051C405.587 43.051 404.446 43.2057 403.383 43.515V41.92C404.639 41.398 406.07 41.137 407.675 41.137C410.961 41.137 412.605 42.5483 412.605 45.371V55.782H410.807L410.575 54.535H410.43C409.598 55.5403 408.322 56.043 406.602 56.043ZM407.153 54.303C408.603 54.303 409.676 53.955 410.372 53.259V49.025L407.066 49.402C406.157 49.4987 405.49 49.75 405.065 50.156C404.639 50.5427 404.427 51.142 404.427 51.954C404.427 52.7273 404.668 53.317 405.152 53.723C405.635 54.1097 406.302 54.303 407.153 54.303ZM422.368 56.043C420.338 56.043 418.743 55.4147 417.583 54.158C416.443 52.9013 415.872 51.1323 415.872 48.851V48.416C415.872 46.1733 416.462 44.4043 417.641 43.109C418.84 41.7943 420.425 41.137 422.397 41.137C424.427 41.137 426.022 41.775 427.182 43.051C428.342 44.3077 428.922 46.067 428.922 48.329V48.735C428.922 50.997 428.323 52.7853 427.124 54.1C425.926 55.3953 424.34 56.043 422.368 56.043ZM422.426 54.216C423.741 54.216 424.775 53.7713 425.529 52.882C426.283 51.9733 426.66 50.678 426.66 48.996V48.271C426.66 46.3957 426.264 45.0423 425.471 44.211C424.698 43.3797 423.664 42.964 422.368 42.964C421.054 42.964 420.019 43.4183 419.265 44.327C418.511 45.2357 418.134 46.5213 418.134 48.184V48.909C418.134 52.447 419.565 54.216 422.426 54.216Z" fill="black"/>
</svg>
