<svg width="200" height="54" viewBox="0 0 200 54" fill="none" xmlns="http://www.w3.org/2000/svg">
<rect width="200" height="54" rx="4" fill="#03C75A"/>
<g clip-path="url(#clip0_122_123)">
<path d="M45.8491 27.5627L39.9169 19H35V35H40.1509V26.436L46.0831 35H51V19H45.8491V27.5627Z" fill="white"/>
</g>
<path d="M75.27 24.418H71.868V23.104H75.27V18.37H76.8V32.986H75.27V24.418ZM79.968 33.76H78.438V18.028H79.968V33.76ZM74.19 29.242C73.074 29.512 70.932 29.728 68.97 29.764H67.476V19.72H69.06V28.396C70.608 28.396 72.876 28.234 73.956 27.928L74.19 29.242ZM95.2362 33.76H93.6342V18.028H95.2362V33.76ZM82.8162 24.76C82.8162 21.646 84.0762 19.216 86.8662 19.216C89.6562 19.216 90.8982 21.646 90.8982 24.778C90.8982 27.892 89.6562 30.34 86.8662 30.34C84.0762 30.34 82.8162 27.892 82.8162 24.76ZM89.3142 24.778C89.3142 22.348 88.4862 20.584 86.8662 20.584C85.2642 20.584 84.4362 22.348 84.4362 24.778C84.4362 27.208 85.2642 28.954 86.8662 28.954C88.4862 28.954 89.3142 27.208 89.3142 24.778ZM109.244 25.138H106.418V23.788H109.244V18.028H110.828V33.76H109.244V25.138ZM105.716 29.8H98.3184V19.306H99.8844V23.266H104.114V19.288H105.716V29.8ZM104.114 28.504V24.526H99.8844V28.504H104.114ZM132.337 31.762H118.135V30.466H124.399V27.982H119.845V22.924H128.989V20.62H119.809V19.324H130.573V24.22H121.429V26.686H131.005V27.982H126.001V30.466H132.337V31.762ZM147.911 31.474H133.709V30.178H147.911V31.474ZM146.021 19.81C146.021 23.392 145.751 27.01 145.283 29.044L143.735 28.846C144.131 27.334 144.401 23.464 144.401 21.088H135.185V19.81H146.021ZM162.19 29.458H160.588V18.028H162.19V29.458ZM162.55 33.274H151.84V28.378H153.442V31.996H162.55V33.274ZM153.838 19.09C156.268 19.09 158.05 20.764 158.05 23.014C158.05 25.282 156.268 26.848 153.838 26.848C151.426 26.848 149.644 25.282 149.644 23.032C149.644 20.764 151.426 19.09 153.838 19.09ZM153.838 20.458C152.362 20.458 151.318 21.538 151.318 22.996C151.318 24.436 152.362 25.516 153.838 25.516C155.386 25.516 156.358 24.454 156.358 23.014C156.358 21.52 155.386 20.458 153.838 20.458Z" fill="white"/>
<defs>
<clipPath id="clip0_122_123">
<rect width="16" height="16" fill="white" transform="translate(35 19)"/>
</clipPath>
</defs>
</svg>
