<svg width="166" height="47" viewBox="0 0 166 47" fill="none" xmlns="http://www.w3.org/2000/svg">
<g clip-path="url(#clip0_1065_18518)">
<path d="M63.2075 14.0137C61.5046 14.0137 59.9198 14.5131 58.5758 15.3585V14.0137H54.4912V32.2548H58.5758V22.74C58.5758 20.186 60.6552 18.1052 63.2075 18.1052C65.7598 18.1052 67.8393 20.186 67.8393 22.74V32.2548H71.9239V22.74C71.9239 17.93 68.0144 14.0181 63.2075 14.0181V14.0137Z" fill="#3983A0"/>
<path d="M125.382 9.44904C125.715 9.35267 126.065 9.31324 126.411 9.31324V5.22607H125.837L125.561 5.2436C121.035 5.86127 117.62 9.76445 117.589 14.3335V32.2504H121.674V18.079H126.411V13.9918H121.691C121.862 11.854 123.351 10.0404 125.382 9.44904Z" fill="#3983A0"/>
<path d="M108.514 14.0049V15.5732C107.056 14.5831 105.301 14.0049 103.409 14.0049C100.135 14.0049 97.2629 15.7396 95.6562 18.3374L98.6594 21.2724C99.4037 19.3712 101.251 18.0176 103.409 18.0176C106.224 18.0176 108.514 20.3087 108.514 23.1254C108.514 25.9422 106.224 28.2333 103.409 28.2333C101.737 28.2333 100.384 27.2783 99.2767 26.2051L89.3915 16.5457C87.7542 14.973 85.5302 14.0049 83.083 14.0049C78.0572 14.0049 73.9683 18.0964 73.9683 23.1298C73.9683 28.1632 78.0572 32.2504 83.083 32.2504C86.5152 32.2504 89.5097 30.3448 91.0638 27.5324L87.9906 24.5273C87.382 26.665 85.4164 28.2333 83.0873 28.2333C80.2724 28.2333 77.9828 25.9422 77.9828 23.1254C77.9828 20.3087 80.2724 18.0176 83.0873 18.0176C84.5189 18.0176 85.7184 18.6309 86.7341 19.5508L97.3636 29.9374C98.9746 31.3699 101.098 32.246 103.418 32.246C105.309 32.246 107.065 31.6677 108.523 30.6777V32.246H112.533V14.0049H108.523H108.514Z" fill="#3983A0"/>
<path d="M161.985 14.0049V15.5732C160.527 14.5831 158.772 14.0049 156.881 14.0049C153.606 14.0049 150.734 15.7396 149.127 18.3374L152.131 21.2724C152.875 19.3712 154.722 18.0176 156.881 18.0176C159.696 18.0176 161.985 20.3087 161.985 23.1254C161.985 25.9422 159.696 28.2333 156.881 28.2333C155.208 28.2333 153.855 27.2783 152.748 26.2051L142.863 16.5457C141.225 14.973 139.001 14.0049 136.554 14.0049C131.528 14.0049 127.439 18.0964 127.439 23.1298C127.439 28.1632 131.528 32.2504 136.554 32.2504C139.986 32.2504 142.981 30.3448 144.535 27.5324L141.462 24.5273C140.853 26.665 138.888 28.2333 136.559 28.2333C133.744 28.2333 131.454 25.9422 131.454 23.1254C131.454 20.3087 133.744 18.0176 136.559 18.0176C137.99 18.0176 139.19 18.6309 140.205 19.5508L150.835 29.9374C152.446 31.3699 154.569 32.246 156.889 32.246C158.781 32.246 160.536 31.6677 161.994 30.6777V32.246H166.004V14.0049H161.994H161.985Z" fill="#3983A0"/>
<path d="M22.559 46.8908C20.6109 46.8908 14.2148 46.2425 13.8033 37.8929C13.6544 34.844 12.0653 33.3151 8.80375 33.0786C3.40147 32.6887 -0.135848 28.9914 -0.000133929 23.8748C0.131202 19.0736 4.21137 15.166 9.09269 15.166H11.4524V19.2751H9.09269C6.18141 19.2751 4.10193 21.5618 4.10193 23.9887C4.10193 26.7441 5.94939 28.8688 9.09269 28.9827C14.4424 29.171 17.8659 32.5354 17.8966 37.6914C17.9141 40.9638 20.2738 42.8387 22.756 42.8387C25.5841 42.8387 27.5936 40.5783 27.5936 37.9367V24.1289C27.5936 21.4567 25.4178 19.2795 22.7473 19.2795H21.0486V15.1704H22.7473C27.6855 15.1704 31.7 19.1875 31.7 24.1289V37.9367C31.7 42.8738 27.5979 46.8908 22.5546 46.8908H22.559Z" fill="#3983A0"/>
<path d="M36.9227 31.7204H34.134V27.6114H37.0584C39.8296 27.6114 41.9135 25.3597 41.9135 22.7576C41.9135 20.1555 39.9741 17.952 36.9227 17.9038C31.7043 17.8206 28.1276 14.1671 28.1276 8.95847C28.1276 6.27312 26.0131 4.10469 23.3645 4.10469C20.2124 4.10469 18.4219 6.61919 18.4219 8.95409V22.762C18.4219 25.4342 20.5977 27.6114 23.2682 27.6114H25.4746V31.7204H23.2682C18.3299 31.7204 14.3154 27.7034 14.3154 22.762V8.95409C14.3111 3.91632 18.1811 0 23.0931 0C28.005 0 31.7087 3.33369 32.2121 8.91466C32.5011 12.1126 33.9939 13.5801 37.216 13.8123C42.6183 14.2021 46.1557 17.8994 46.0156 23.016C45.8842 27.8173 41.804 31.7248 36.9227 31.7248V31.7204Z" fill="#3983A0"/>
</g>
<defs>
<clipPath id="clip0_1065_18518">
<rect width="166" height="46.8907" fill="white"/>
</clipPath>
</defs>
</svg>
