<svg width="103" height="19" viewBox="0 0 103 19" fill="none" xmlns="http://www.w3.org/2000/svg">
<path d="M17.0498 18.48H11.267L6.5724 12.1071C6.48704 11.9872 6.42302 11.8274 6.35901 11.6077C6.31633 11.3879 6.27365 11.0882 6.25231 10.7286H6.12428V18.5H0V0.5H5.78285L10.4774 6.87292C10.5628 6.99279 10.6268 7.15261 10.6908 7.37236C10.7335 7.59212 10.7762 7.89179 10.7975 8.25139H10.9255V0.5H17.0712V18.48H17.0498Z" fill="white"/>
<path d="M23.174 18.48H16.687L21.659 0.5H31.1548L36.1268 18.48H29.6398L28.9142 15.6232H23.8356L23.1527 18.48H23.174ZM26.2469 6.01387L24.9879 11.0483H27.8046L26.5669 6.01387H26.2255H26.2469Z" fill="white"/>
<path d="M40.5293 18.48H34.0422L39.0142 0.5H48.51L53.482 18.48H46.995L46.2695 15.6232H41.1908L40.5079 18.48H40.5293ZM43.6021 6.01387L42.3431 11.0483H45.1598L43.9222 6.01387H43.5807H43.6021Z" fill="white"/>
<path d="M66.0293 11.8074H60.8013V18.48H54.6556V0.5H67.2456L66.4774 5.09489H60.8013V7.51221H66.0293V11.8074Z" fill="white"/>
<path d="M72.1536 18.48H65.6666L70.6386 0.5H80.1344L85.1064 18.48H78.6193L77.8938 15.6232H72.8151L72.1323 18.48H72.1536ZM75.2264 6.01387L73.9674 11.0483H76.7842L75.5465 6.01387H75.2051H75.2264Z" fill="white"/>
<path d="M89.5088 18.48H83.0218L87.9938 0.5H97.4896L102.462 18.48H95.9745L95.249 15.6232H90.1703L89.4875 18.48H89.5088ZM92.5816 6.01387L91.3226 11.0483H94.1394L92.9017 6.01387H92.5603H92.5816Z" fill="white"/>
</svg>
