<svg width="103" height="18" viewBox="0 0 103 18" fill="none" xmlns="http://www.w3.org/2000/svg">
<path d="M17.0498 17.98H11.267L6.5724 11.6071C6.48704 11.4872 6.42302 11.3274 6.35901 11.1077C6.31633 10.8879 6.27365 10.5882 6.25231 10.2286H6.12428V18H0V0H5.78285L10.4774 6.37292C10.5628 6.49279 10.6268 6.65261 10.6908 6.87236C10.7335 7.09212 10.7762 7.39179 10.7975 7.75139H10.9255V0H17.0712V17.98H17.0498Z" fill="#3983A0"/>
<path d="M23.174 17.98H16.687L21.659 0H31.1548L36.1268 17.98H29.6398L28.9142 15.1232H23.8356L23.1527 17.98H23.174ZM26.2469 5.51387L24.9879 10.5483H27.8046L26.5669 5.51387H26.2255H26.2469Z" fill="#3983A0"/>
<path d="M40.529 17.98H34.042L39.014 0H48.5098L53.4818 17.98H46.9947L46.2692 15.1232H41.1905L40.5077 17.98H40.529ZM43.6018 5.51387L42.3428 10.5483H45.1596L43.9219 5.51387H43.5805H43.6018Z" fill="#3983A0"/>
<path d="M66.0294 11.3074H60.8014V17.98H54.6558V0H67.2457L66.4775 4.59489H60.8014V7.01221H66.0294V11.3074Z" fill="#3983A0"/>
<path d="M72.1535 17.98H65.6665L70.6385 0H80.1343L85.1063 17.98H78.6192L77.8937 15.1232H72.8151L72.1322 17.98H72.1535ZM75.2264 5.51387L73.9674 10.5483H76.7841L75.5464 5.51387H75.205H75.2264Z" fill="#3983A0"/>
<path d="M89.509 17.98H83.022L87.994 0H97.4898L102.462 17.98H95.9747L95.2492 15.1232H90.1705L89.4877 17.98H89.509ZM92.5818 5.51387L91.3228 10.5483H94.1396L92.9019 5.51387H92.5605H92.5818Z" fill="#3983A0"/>
</svg>
